# Created using Spin 3D

# Vertex Array 
v 0.032 -0.110 0.049
v 0.032 -0.042 -0.055
v 0.032 -0.042 0.049
v 0.032 -0.110 -0.062
v -0.044 -0.110 -0.062
v -0.044 -0.110 0.049
v 0.029 0.006 0.049
v 0.029 0.006 -0.051
v -0.009 0.029 -0.052
v 0.003 0.029 0.049
v 0.003 0.029 -0.052
v -0.009 0.029 0.049
v 0.021 0.021 -0.052
v 0.021 0.021 0.049
v -0.023 0.023 0.049
v -0.044 -0.030 -0.055
v -0.044 -0.030 0.049
v -0.023 0.023 -0.052

# Normal Array
vn 1.000 -0.000 0.000
vn 1.000 0.000 0.000
vn 0.000 -1.000 0.000
vn 0.000 -1.000 -0.000
vn 0.997 0.077 0.000
vn 0.997 0.077 -0.000
vn 0.000 1.000 0.000
vn 0.000 1.000 0.000
vn 0.906 0.423 0.000
vn 0.906 0.423 0.000
vn -0.931 0.364 0.000
vn -0.931 0.364 0.000
vn -1.000 0.000 0.000
vn -1.000 0.000 0.000
vn 0.399 0.917 0.000
vn 0.399 0.917 0.000
vn 0.000 0.093 -0.996
vn 0.372 0.118 -0.921
vn 0.000 0.000 -1.000
vn -0.027 0.069 -0.997
vn 0.007 0.086 -0.996
vn 0.016 0.061 -0.998
vn 0.001 0.052 -0.999
vn 0.000 0.000 1.000
vn 0.000 0.000 1.000
vn 0.000 0.000 1.000
vn -0.000 0.000 1.000
vn 0.000 0.000 1.000
vn 0.000 0.000 1.000
vn 0.000 0.000 1.000
vn -0.368 0.930 0.000
vn -0.368 0.930 0.000

# Facets
f 1//1 2//1 3//1
f 2//2 1//2 4//2
f 5//3 1//3 6//3
f 1//4 5//4 4//4
f 7//5 2//5 8//5
f 2//6 7//6 3//6
f 9//7 10//7 11//7
f 10//8 9//8 12//8
f 13//9 7//9 8//9
f 7//10 13//10 14//10
f 15//11 16//11 17//11
f 16//12 15//12 18//12
f 6//13 16//13 5//13
f 16//14 6//14 17//14
f 11//15 14//15 13//15
f 14//16 11//16 10//16
f 4//17 5//17 2//17
f 2//18 13//18 8//18
f 13//19 9//19 11//19
f 9//20 16//20 18//20
f 2//21 5//21 16//21
f 2//22 9//22 13//22
f 2//23 16//23 9//23
f 3//24 7//24 1//24
f 1//25 17//25 6//25
f 17//26 12//26 15//26
f 12//27 14//27 10//27
f 1//28 7//28 14//28
f 1//29 12//29 17//29
f 1//30 14//30 12//30
f 18//31 12//31 9//31
f 12//32 18//32 15//32

# Thank you for using Spin 3D

