# Created using Spin 3D

# Vertex Array 
v 0.025 -0.108 -0.057
v 0.031 -0.108 0.037
v 0.018 -0.108 0.047
v -0.034 -0.032 -0.053
v -0.029 -0.107 -0.060
v -0.039 -0.106 -0.057
v 0.031 -0.034 0.037
v 0.027 -0.106 0.045
v 0.028 0.005 0.039
v 0.020 0.015 0.046
v 0.022 -0.003 0.048
v 0.032 -0.106 -0.045
v 0.030 -0.105 -0.055
v 0.023 -0.104 -0.059
v -0.004 0.028 0.040
v -0.014 0.025 -0.036
v -0.017 0.024 0.037
v -0.017 0.011 0.049
v -0.023 -0.106 0.049
v 0.021 0.004 -0.049
v -0.034 -0.108 0.047
v -0.043 -0.106 0.035
v -0.044 -0.106 -0.048
v -0.040 -0.108 0.042
v -0.040 -0.033 0.043
v -0.043 -0.030 0.033
v -0.025 0.012 0.043
v -0.042 -0.032 -0.047
v -0.022 0.016 -0.045
v 0.028 0.002 -0.043
v 0.023 0.018 -0.037
v 0.010 0.024 0.045
v 0.022 0.019 0.034
v -0.010 0.021 0.047
v 0.007 0.020 0.048
v -0.009 0.021 -0.047
v -0.027 0.012 0.032
v 0.032 -0.045 -0.039
v 0.010 0.026 -0.041
v 0.009 0.027 0.035
v -0.027 0.013 -0.036
v -0.001 -0.043 -0.056
v -0.030 -0.031 0.048
v -0.001 0.028 -0.038
v 0.016 0.016 -0.047
v -0.041 -0.108 -0.050
v -0.041 -0.024 -0.042

# Normal Array
vn 0.022 -1.000 0.003
vn -0.238 0.065 -0.969
vn 0.877 0.001 0.480
vn 0.745 0.156 0.649
vn 0.569 -0.787 -0.239
vn 0.474 -0.265 -0.839
vn -0.297 0.955 0.010
vn 0.036 -0.001 0.999
vn 0.507 0.090 -0.857
vn -0.002 -1.000 0.002
vn -0.568 -0.823 0.004
vn -0.958 0.010 0.286
vn -0.889 0.302 0.344
vn -0.584 0.276 -0.763
vn -0.605 -0.013 0.796
vn 0.941 0.339 -0.007
vn 0.598 0.719 0.353
vn -0.022 0.718 0.695
vn -0.266 0.229 -0.936
vn -0.755 0.624 0.203
vn -0.557 0.184 0.810
vn 1.000 0.006 0.010
vn 0.530 0.848 -0.004
vn -0.724 0.690 0.001
vn 0.978 0.028 -0.205
vn 0.163 0.943 0.292
vn -0.025 0.125 -0.992
vn 0.031 -0.516 -0.856
vn -0.345 0.815 0.465
vn -0.476 0.135 0.869
vn -1.000 0.021 -0.014
vn -0.204 0.979 -0.004
vn 0.560 0.679 -0.475
vn 0.638 0.097 -0.764
vn -0.000 -1.000 0.003
vn 0.636 0.330 -0.698
vn -0.938 0.347 0.006
vn -0.473 0.480 0.739
vn -0.077 0.252 0.965
vn 0.090 0.094 -0.992
vn -0.023 0.145 -0.989
vn 0.026 -0.004 1.000
vn -0.063 0.692 0.719
vn 0.021 -0.017 1.000
vn -0.017 -0.987 -0.163
vn -0.912 0.342 0.224
vn 0.998 0.067 0.001
vn 0.802 0.018 0.596
vn 0.916 0.402 0.005
vn 0.828 0.475 0.299
vn -0.059 0.004 0.998
vn 0.161 0.987 -0.007
vn -0.011 -0.771 0.636
vn 0.551 0.835 -0.008
vn -0.824 0.359 -0.437
vn 0.997 0.071 0.002
vn -0.019 0.836 -0.549
vn 0.308 -0.014 0.951
vn 0.242 0.136 0.961
vn 0.002 -1.000 0.003
vn 0.125 0.601 -0.789
vn -0.687 0.727 -0.010
vn 0.963 0.044 -0.265
vn -1.000 0.003 0.003
vn 0.337 -0.854 0.397
vn -0.465 0.003 0.885
vn -0.534 0.650 0.541
vn -0.677 -0.736 0.010
vn 0.534 0.812 0.234
vn 0.348 0.490 0.799
vn -0.039 0.082 -0.996
vn -0.913 -0.005 0.408
vn -0.207 -0.011 0.978
vn -0.899 0.025 -0.438
vn -0.682 0.720 -0.131
vn -0.864 0.387 -0.323
vn 0.064 0.998 0.006
vn 0.007 0.062 -0.998
vn 0.712 0.451 -0.539
vn 0.815 0.027 0.579
vn -0.801 -0.448 -0.398
vn -0.433 0.788 -0.438
vn -0.164 -0.919 -0.358
vn 0.024 0.131 -0.991
vn -0.933 0.361 -0.002
vn 1.000 -0.002 0.017
vn -0.233 0.890 -0.392
vn -0.607 0.082 -0.790
vn 0.241 -0.970 -0.010
vn -0.995 0.096 -0.016

# Facets
f 1//1 2//1 3//1
f 4//2 5//2 6//2
f 7//3 8//3 2//3
f 9//4 10//4 11//4
f 12//5 1//5 13//5
f 14//6 13//6 1//6
f 15//7 16//7 17//7
f 18//8 19//8 3//8
f 14//9 20//9 13//9
f 3//10 21//10 1//10
f 22//11 23//11 24//11
f 22//12 25//12 26//12
f 26//13 25//13 27//13
f 28//14 29//14 4//14
f 21//15 25//15 24//15
f 9//16 30//16 31//16
f 32//17 10//17 33//17
f 15//18 34//18 35//18
f 4//19 29//19 36//19
f 17//20 37//20 27//20
f 18//21 27//21 25//21
f 12//22 38//22 7//22
f 39//23 40//23 33//23
f 17//24 41//24 37//24
f 13//25 38//25 12//25
f 15//26 32//26 40//26
f 4//27 36//27 42//27
f 5//28 14//28 1//28
f 34//29 15//29 17//29
f 18//30 25//30 43//30
f 23//31 26//31 28//31
f 16//32 15//32 44//32
f 31//33 45//33 39//33
f 20//34 30//34 13//34
f 21//35 46//35 1//35
f 45//36 30//36 20//36
f 37//37 47//37 26//37
f 18//38 34//38 27//38
f 34//39 18//39 35//39
f 20//40 14//40 42//40
f 45//41 20//41 42//41
f 11//42 18//42 3//42
f 32//43 15//43 35//43
f 18//44 11//44 35//44
f 1//45 46//45 5//45
f 27//46 37//46 26//46
f 30//47 7//47 38//47
f 11//48 8//48 7//48
f 9//49 31//49 33//49
f 10//50 9//50 33//50
f 18//51 43//51 19//51
f 40//52 39//52 44//52
f 19//53 21//53 3//53
f 31//54 39//54 33//54
f 47//55 29//55 28//55
f 9//56 7//56 30//56
f 44//57 39//57 36//57
f 3//58 8//58 11//58
f 11//59 10//59 35//59
f 24//60 46//60 21//60
f 45//61 36//61 39//61
f 41//62 17//62 16//62
f 30//63 38//63 13//63
f 23//64 22//64 26//64
f 3//65 2//65 8//65
f 43//66 25//66 21//66
f 27//67 34//67 17//67
f 46//68 24//68 23//68
f 40//69 32//69 33//69
f 35//70 10//70 32//70
f 5//71 4//71 42//71
f 25//72 22//72 24//72
f 43//73 21//73 19//73
f 28//74 6//74 23//74
f 16//75 29//75 41//75
f 29//76 47//76 41//76
f 15//77 40//77 44//77
f 14//78 5//78 42//78
f 45//79 31//79 30//79
f 7//80 9//80 11//80
f 23//81 6//81 46//81
f 29//82 16//82 36//82
f 5//83 46//83 6//83
f 42//84 36//84 45//84
f 37//85 41//85 47//85
f 12//86 7//86 2//86
f 36//87 16//87 44//87
f 6//88 28//88 4//88
f 12//89 2//89 1//89
f 26//90 47//90 28//90

# Thank you for using Spin 3D

