# Created using Spin 3D

# Vertex Array 
v 0.019 -0.031 0.035
v 0.007 -0.036 0.035
v 0.017 -0.033 -0.044
v -0.032 -0.017 0.037
v -0.036 -0.006 0.034
v -0.031 -0.019 -0.044
v -0.039 0.234 -0.043
v -0.038 0.111 -0.058
v -0.039 0.109 0.030
v 0.037 -0.007 -0.043
v 0.037 0.234 -0.004
v 0.036 -0.006 0.037
v 0.025 0.236 0.046
v 0.026 0.234 0.048
v 0.033 0.234 0.043
v 0.003 0.234 0.049
v -0.016 -0.017 0.049
v 0.015 -0.017 0.049
v -0.018 -0.031 0.039
v -0.009 -0.035 -0.043
v -0.006 -0.036 0.036
v 0.005 -0.028 0.047
v 0.021 -0.023 0.046
v -0.036 0.234 -0.055
v -0.035 0.236 -0.051
v 0.029 -0.007 0.046
v -0.036 -0.006 -0.043
v -0.001 -0.033 0.044
v 0.013 -0.030 0.044
v -0.026 -0.025 0.032
v -0.021 -0.030 -0.044
v -0.025 0.234 0.048
v -0.026 -0.017 0.046
v -0.012 -0.027 0.047
v -0.022 -0.027 0.041
v -0.038 0.235 0.032
v 0.036 0.234 0.035
v -0.003 0.234 -0.060
v 0.030 0.234 -0.059
v 0.030 0.169 -0.062
v -0.032 0.233 0.046
v -0.028 -0.006 0.047
v 0.033 -0.017 0.034
v 0.036 0.233 -0.053
v 0.001 -0.037 -0.044
v -0.023 0.035 -0.065
v 0.025 0.038 -0.065
v -0.025 0.183 -0.062
v -0.001 0.046 -0.066
v 0.025 -0.027 0.037
v -0.035 -0.005 0.041
v -0.028 0.235 -0.059
v -0.032 0.128 -0.063
v 0.030 -0.021 -0.044
v -0.037 0.236 0.038
v -0.028 0.236 0.046
v -0.028 0.034 -0.063
v 0.030 -0.014 0.043
v 0.034 0.047 -0.061
v 0.037 0.051 -0.055
v 0.034 0.236 0.038
v 0.032 0.236 -0.056
v -0.036 0.104 0.042

# Normal Array
vn 0.370 -0.929 0.006
vn -0.937 -0.350 0.001
vn -1.000 -0.009 -0.015
vn 1.000 -0.003 0.008
vn 0.353 0.636 0.686
vn 0.003 -0.001 1.000
vn -0.359 -0.933 0.008
vn 0.186 -0.311 0.932
vn -0.979 0.013 -0.202
vn -0.772 0.613 -0.168
vn 0.519 0.003 0.855
vn -1.000 -0.014 -0.015
vn -0.938 -0.347 0.000
vn 0.169 -0.870 0.464
vn -0.581 -0.814 0.006
vn -0.031 0.002 1.000
vn -0.727 -0.687 -0.012
vn -0.286 -0.314 0.905
vn -0.419 -0.528 0.739
vn 0.045 0.636 0.771
vn -1.000 0.004 0.006
vn 0.001 -0.153 0.988
vn 1.000 -0.000 0.025
vn 0.046 0.054 -0.997
vn -0.334 -0.000 0.942
vn 0.959 -0.285 0.013
vn 0.687 0.039 -0.726
vn -0.064 -0.525 0.848
vn 0.019 -0.270 -0.963
vn -0.531 0.847 -0.004
vn 0.008 0.024 -1.000
vn 0.614 -0.789 -0.001
vn -0.974 -0.014 0.225
vn -0.347 0.833 -0.431
vn -0.453 0.048 -0.890
vn -0.823 -0.568 0.006
vn 0.331 -0.875 0.353
vn 0.910 -0.415 -0.006
vn 0.009 -0.098 -0.995
vn -0.460 0.739 0.492
vn 0.292 -0.193 0.937
vn -0.924 -0.276 0.267
vn 0.785 -0.619 0.010
vn -0.052 0.013 -0.999
vn -0.669 -0.216 -0.712
vn -0.342 -0.299 -0.891
vn -0.707 0.024 -0.706
vn -0.865 -0.074 -0.496
vn 0.635 -0.543 0.549
vn 0.905 -0.084 -0.417
vn -0.001 0.825 0.565
vn 0.912 0.002 0.409
vn 0.131 -0.684 0.717
vn -0.019 -1.000 0.006
vn -0.258 -0.730 0.632
vn -0.787 -0.324 0.525
vn -0.006 1.000 -0.001
vn -0.052 0.064 -0.997
vn -0.006 1.000 0.004
vn -0.034 -0.216 0.976
vn 0.581 -0.228 -0.781
vn 0.595 -0.221 -0.773
vn -0.730 -0.644 0.229
vn 0.494 -0.299 0.817
vn 0.011 0.036 -0.999
vn 0.000 -0.946 0.324
vn 1.000 0.003 -0.011
vn 0.044 0.796 -0.604
vn 0.051 0.001 0.999
vn 0.238 -0.971 -0.013
vn 0.006 0.929 -0.370
vn 0.043 0.015 -0.999
vn 0.514 -0.666 0.542
vn 0.377 0.003 -0.926
vn 0.653 -0.758 -0.007
vn -0.008 0.991 -0.134
vn -0.850 0.009 0.527
vn 0.001 0.999 -0.049
vn -0.095 -0.304 -0.948
vn -0.127 -0.412 -0.902
vn 0.073 -0.285 -0.956
vn 0.772 0.017 -0.635
vn 0.000 1.000 -0.000
vn -0.315 0.045 -0.948
vn 0.284 -0.296 -0.912
vn -0.973 -0.014 0.230
vn -0.336 -0.016 -0.942
vn -0.326 0.461 0.826
vn -0.047 0.015 -0.999
vn -0.142 -0.002 0.990
vn -0.670 -0.717 0.193
vn 0.886 0.008 -0.463
vn 0.582 0.813 0.017
vn 0.536 0.844 -0.028
vn -0.686 -0.181 0.704
vn 0.357 0.934 -0.007
vn -0.616 -0.027 -0.788
vn 1.000 0.002 -0.024
vn 0.766 0.551 0.333
vn 0.657 0.315 -0.685
vn -0.563 -0.005 0.827
vn -1.000 -0.023 -0.001
vn 0.875 -0.334 0.350
vn -0.018 0.740 0.672
vn -0.682 -0.018 0.731
vn -0.980 0.000 0.198
vn -0.972 -0.002 0.234
vn -0.706 -0.516 0.484
vn -0.267 -0.298 -0.916
vn 0.292 0.894 0.339
vn -0.104 -0.995 -0.002
vn -0.294 -0.169 0.941
vn -0.606 0.795 -0.008
vn 0.234 -0.467 0.853
vn 0.815 -0.140 0.562
vn 0.813 -0.004 0.583
vn 0.777 -0.511 0.367
vn -0.428 -0.904 -0.001
vn 0.484 -0.757 0.438
vn 0.169 -0.004 0.986
vn -0.380 -0.638 0.670
vn -0.217 -0.874 0.435

# Facets
f 1//1 2//1 3//1
f 4//2 5//2 6//2
f 7//3 8//3 9//3
f 10//4 11//4 12//4
f 13//5 14//5 15//5
f 16//6 17//6 18//6
f 19//7 20//7 21//7
f 22//8 23//8 18//8
f 8//9 7//9 24//9
f 24//10 7//10 25//10
f 15//11 14//11 26//11
f 8//12 27//12 9//12
f 6//13 5//13 27//13
f 28//14 2//14 29//14
f 19//15 30//15 31//15
f 32//16 17//16 16//16
f 31//17 30//17 6//17
f 17//18 33//18 34//18
f 34//19 33//19 35//19
f 13//20 16//20 14//20
f 7//21 9//21 36//21
f 17//22 22//22 18//22
f 11//23 37//23 12//23
f 38//24 39//24 40//24
f 32//25 41//25 42//25
f 10//26 12//26 43//26
f 39//27 44//27 40//27
f 34//28 28//28 22//28
f 45//29 46//29 47//29
f 7//30 36//30 25//30
f 48//31 40//31 49//31
f 1//32 3//32 50//32
f 5//33 51//33 9//33
f 52//34 24//34 25//34
f 24//35 52//35 53//35
f 4//36 6//36 30//36
f 29//37 2//37 1//37
f 43//38 54//38 10//38
f 47//39 46//39 49//39
f 55//40 41//40 56//40
f 18//41 23//41 26//41
f 4//42 51//42 5//42
f 43//43 50//43 54//43
f 53//44 48//44 49//44
f 57//45 6//45 27//45
f 6//46 57//46 31//46
f 53//47 8//47 24//47
f 57//48 27//48 8//48
f 50//49 58//49 23//49
f 10//50 59//50 60//50
f 13//51 56//51 16//51
f 37//52 15//52 12//52
f 28//53 29//53 22//53
f 2//54 21//54 45//54
f 28//55 34//55 19//55
f 4//56 33//56 51//56
f 55//57 13//57 61//57
f 48//58 52//58 38//58
f 61//59 25//59 55//59
f 34//60 22//60 17//60
f 10//61 47//61 59//61
f 10//62 54//62 47//62
f 35//63 4//63 30//63
f 23//64 58//64 26//64
f 38//65 40//65 48//65
f 2//66 28//66 21//66
f 44//67 10//67 60//67
f 39//68 38//68 62//68
f 18//69 14//69 16//69
f 2//70 45//70 3//70
f 38//71 52//71 62//71
f 49//72 40//72 47//72
f 50//73 23//73 29//73
f 59//74 47//74 40//74
f 3//75 54//75 50//75
f 62//76 52//76 25//76
f 41//77 55//77 63//77
f 56//78 13//78 55//78
f 45//79 31//79 46//79
f 45//80 20//80 31//80
f 3//81 45//81 47//81
f 44//82 59//82 40//82
f 61//83 62//83 25//83
f 53//84 52//84 48//84
f 3//85 47//85 54//85
f 51//86 63//86 9//86
f 46//87 57//87 53//87
f 32//88 56//88 41//88
f 46//89 53//89 49//89
f 32//90 42//90 17//90
f 35//91 30//91 19//91
f 59//92 44//92 60//92
f 37//93 11//93 61//93
f 62//94 11//94 44//94
f 33//95 42//95 51//95
f 61//96 11//96 62//96
f 57//97 8//97 53//97
f 11//98 10//98 44//98
f 37//99 61//99 15//99
f 39//100 62//100 44//100
f 42//101 41//101 63//101
f 27//102 5//102 9//102
f 58//103 43//103 12//103
f 56//104 32//104 16//104
f 51//105 42//105 63//105
f 9//106 55//106 36//106
f 55//107 9//107 63//107
f 35//108 33//108 4//108
f 31//109 57//109 46//109
f 61//110 13//110 15//110
f 21//111 20//111 45//111
f 17//112 42//112 33//112
f 55//113 25//113 36//113
f 22//114 29//114 23//114
f 12//115 26//115 58//115
f 12//116 15//116 26//116
f 43//117 58//117 50//117
f 20//118 19//118 31//118
f 50//119 29//119 1//119
f 26//120 14//120 18//120
f 35//121 19//121 34//121
f 28//122 19//122 21//122

# Thank you for using Spin 3D

