# Created using Spin 3D

# Vertex Array 
v 0.038 -0.037 -0.045
v 0.038 0.040 -0.067
v 0.038 -0.037 0.049
v 0.038 0.237 -0.062
v 0.038 0.237 0.049
v -0.039 0.237 0.049
v -0.039 -0.037 0.049
v -0.039 0.237 -0.062
v -0.039 0.040 -0.067
v -0.039 -0.037 -0.045

# Normal Array
vn 1.000 -0.000 0.000
vn 1.000 -0.000 0.000
vn 1.000 0.000 0.000
vn 0.000 -0.000 1.000
vn 0.000 -0.000 1.000
vn 0.000 1.000 -0.000
vn 0.000 1.000 0.000
vn 0.000 0.026 -1.000
vn 0.000 0.026 -1.000
vn -1.000 0.000 -0.000
vn -1.000 0.000 0.000
vn -1.000 0.000 0.000
vn 0.000 -1.000 0.000
vn 0.000 -1.000 -0.000
vn 0.000 -0.266 -0.964
vn 0.000 -0.266 -0.964

# Facets
f 1//1 2//1 3//1
f 3//2 4//2 5//2
f 3//3 2//3 4//3
f 3//4 6//4 7//4
f 6//5 3//5 5//5
f 4//6 6//6 5//6
f 6//7 4//7 8//7
f 2//8 8//8 4//8
f 8//9 2//9 9//9
f 6//10 8//10 7//10
f 7//11 9//11 10//11
f 7//12 8//12 9//12
f 10//13 3//13 7//13
f 3//14 10//14 1//14
f 9//15 1//15 10//15
f 1//16 9//16 2//16

# Thank you for using Spin 3D

