# Created using Spin 3D

# Vertex Array 
v 0.057 -0.030 -0.143
v 0.047 -0.030 -0.143
v 0.047 0.007 -0.143
v 0.057 0.007 -0.143
v 0.047 0.004 -0.049
v 0.047 0.004 -0.074
v 0.047 -0.143 -0.074
v 0.047 -0.143 -0.049
v 0.178 -0.028 -0.145
v 0.077 -0.142 -0.074
v 0.178 -0.028 -0.114
v 0.077 -0.142 -0.056
v 0.178 0.057 -0.145
v 0.178 0.057 -0.114
v 0.047 0.003 0.077
v 0.047 0.003 -0.049
v 0.047 -0.143 -0.049
v 0.047 -0.143 0.077
v 0.077 -0.143 0.077
v 0.086 -0.131 -0.053
v 0.090 -0.131 0.077
v 0.107 -0.102 -0.053
v 0.108 -0.102 0.077
v 0.121 -0.036 0.077
v 0.119 -0.036 -0.053
v 0.104 0.027 -0.053
v 0.110 0.027 0.077

# Normal Array
vn 0.000 0.000 -1.000
vn 0.000 0.000 -1.000
vn -1.000 0.000 -0.000
vn -1.000 0.000 0.000
vn -0.008 -0.521 -0.853
vn 0.748 -0.664 0.000
vn 0.748 -0.664 0.000
vn 1.000 0.000 -0.000
vn 1.000 0.000 0.000
vn 0.000 0.999 0.041
vn -0.018 0.000 -1.000
vn -0.018 -0.000 -1.000
vn 0.000 -0.520 -0.854
vn 0.000 -0.520 -0.854
vn -1.000 0.000 0.000
vn -1.000 0.000 0.000
vn 0.022 -1.000 -0.000
vn 0.000 -1.000 -0.005
vn 0.767 -0.641 -0.021
vn 0.673 -0.740 -0.003
vn 0.843 -0.537 -0.005
vn 0.808 -0.589 -0.022
vn 0.981 -0.195 -0.006
vn 0.984 -0.175 -0.017
vn 0.970 0.243 -0.017
vn 0.983 0.179 -0.049
vn -0.349 0.937 0.017
vn -0.383 0.924 0.000
vn 0.025 -1.000 0.000
vn 0.025 -1.000 0.000
vn -0.386 0.922 0.000
vn -0.121 0.992 0.022
vn -0.384 0.923 -0.010
vn -0.384 0.923 -0.008
vn -1.000 0.000 -0.005
vn -1.000 0.000 -0.005
vn 0.000 0.000 1.000
vn 0.000 0.000 1.000
vn 0.000 0.000 1.000
vn 0.000 -0.000 1.000
vn 0.000 0.000 1.000
vn 0.757 -0.652 0.039
vn 0.789 -0.575 0.217
vn 0.721 -0.128 0.681
vn 0.589 0.148 0.794
vn 0.719 0.000 0.695

# Facets
f 1//1 2//1 3//1
f 3//2 4//2 1//2
f 5//3 6//3 7//3
f 7//4 8//4 5//4
f 9//5 10//5 1//5
f 10//6 9//6 11//6
f 11//7 12//7 10//7
f 13//8 14//8 11//8
f 11//9 9//9 13//9
f 4//10 3//10 6//10
f 1//11 4//11 13//11
f 13//12 9//12 1//12
f 2//13 1//13 10//13
f 10//14 7//14 2//14
f 15//15 16//15 17//15
f 17//16 18//16 15//16
f 18//17 17//17 12//17
f 12//18 19//18 18//18
f 12//19 20//19 21//19
f 21//20 19//20 12//20
f 22//21 23//21 21//21
f 21//22 20//22 22//22
f 24//23 23//23 22//23
f 22//24 25//24 24//24
f 24//25 25//25 26//25
f 26//26 27//26 24//26
f 15//27 27//27 26//27
f 26//28 16//28 15//28
f 7//29 10//29 12//29
f 12//30 8//30 7//30
f 13//31 4//31 14//31
f 4//32 6//32 16//32
f 4//33 16//33 14//33
f 26//34 14//34 16//34
f 2//35 7//35 6//35
f 6//36 3//36 2//36
f 18//37 19//37 15//37
f 19//38 21//38 23//38
f 23//39 24//39 27//39
f 19//40 27//40 15//40
f 19//41 23//41 27//41
f 12//42 11//42 20//42
f 20//43 11//43 22//43
f 25//44 22//44 11//44
f 14//45 26//45 25//45
f 25//46 11//46 14//46

# Thank you for using Spin 3D

