# Created using Spin 3D

# Vertex Array 
v 0.048 -0.139 -0.051
v 0.048 -0.139 -0.073
v 0.074 -0.140 -0.051
v 0.047 0.002 -0.051
v 0.048 -0.030 -0.143
v 0.142 0.034 -0.141
v 0.164 0.022 -0.143
v 0.129 0.029 -0.143
v 0.121 0.031 -0.137
v 0.097 0.022 -0.051
v 0.140 0.037 -0.123
v 0.176 -0.010 -0.138
v 0.174 -0.015 -0.123
v 0.171 -0.020 -0.137
v 0.174 0.016 -0.138
v 0.174 0.000 -0.142
v 0.172 0.015 -0.141
v 0.138 0.036 -0.137
v 0.149 0.035 -0.137
v 0.177 0.005 -0.123
v 0.115 -0.038 -0.051
v 0.104 -0.104 -0.051
v 0.087 -0.129 -0.072
v 0.074 -0.139 -0.073
v 0.163 -0.027 -0.140
v 0.158 0.032 -0.124
v 0.169 0.023 -0.123
v 0.166 0.026 -0.137
v 0.177 0.004 -0.137
v 0.047 0.002 -0.137
v 0.154 -0.028 -0.143
v 0.169 -0.018 -0.142
v 0.048 -0.001 -0.142
v 0.158 0.031 -0.139
v 0.089 -0.127 -0.051
v 0.047 0.002 -0.051
v 0.048 -0.139 -0.051
v 0.047 -0.136 0.071
v 0.096 0.021 0.066
v 0.047 0.002 0.065
v 0.048 -0.000 0.071
v 0.105 0.017 0.066
v 0.104 0.013 0.073
v 0.115 -0.034 0.070
v 0.074 -0.140 -0.051
v 0.089 -0.127 -0.051
v 0.049 -0.133 0.074
v 0.073 -0.130 0.075
v 0.048 -0.007 0.074
v 0.096 0.018 0.072
v 0.105 0.017 -0.051
v 0.096 0.021 -0.051
v 0.049 -0.140 0.067
v 0.075 -0.139 0.066
v 0.073 -0.136 0.072
v 0.102 -0.106 0.067
v 0.094 -0.105 0.075
v 0.089 -0.122 0.072
v 0.111 -0.028 0.075
v 0.098 0.011 0.075
v 0.103 -0.095 0.072
v 0.087 -0.128 0.066
v 0.116 -0.035 -0.051
v 0.104 -0.104 -0.051
v 0.097 -0.116 0.067
v 0.106 -0.092 0.066

# Normal Array
vn -0.010 -1.000 -0.006
vn -1.000 -0.004 -0.006
vn -1.000 -0.005 -0.003
vn 0.050 0.248 -0.968
vn -0.285 0.958 0.030
vn 0.906 -0.420 -0.055
vn 0.859 0.159 -0.486
vn 0.065 0.954 -0.293
vn 0.784 -0.129 0.607
vn 0.612 -0.701 -0.366
vn 0.001 -0.001 1.000
vn 0.244 0.910 0.336
vn 0.634 0.773 0.030
vn 0.911 0.405 0.074
vn 0.962 0.268 -0.046
vn -0.368 0.930 -0.001
vn 0.146 -0.064 -0.987
vn -0.016 0.017 -1.000
vn 0.336 -0.663 -0.669
vn 0.673 0.299 0.677
vn 0.681 0.538 -0.497
vn -0.003 0.001 -1.000
vn 0.623 -0.782 -0.012
vn 0.179 0.457 -0.871
vn -0.004 0.001 -1.000
vn 0.985 -0.164 0.053
vn 0.804 -0.595 0.024
vn 0.072 -0.013 -0.997
vn -0.211 0.797 -0.566
vn 0.696 -0.678 -0.238
vn -1.000 -0.013 -0.003
vn -0.993 0.008 -0.121
vn 0.537 0.570 -0.622
vn -0.362 0.932 0.006
vn -0.001 -0.000 1.000
vn 0.794 0.605 -0.057
vn 0.000 -0.000 1.000
vn 0.532 0.652 0.541
vn 0.382 0.139 -0.914
vn 0.801 -0.400 -0.446
vn 0.000 -0.000 1.000
vn 0.649 -0.761 0.015
vn 0.881 -0.046 -0.471
vn -0.280 0.726 -0.628
vn -0.000 0.000 1.000
vn 0.677 -0.189 -0.712
vn 0.211 0.819 -0.533
vn 0.786 -0.132 0.604
vn 0.004 -0.535 -0.845
vn -0.238 0.809 -0.537
vn 0.558 0.829 -0.034
vn 0.833 -0.529 0.160
vn 0.600 0.524 -0.605
vn 0.343 -0.368 -0.864
vn -0.310 0.780 -0.544
vn 0.679 0.199 0.707
vn 0.996 -0.084 -0.027
vn 0.258 0.965 0.052
vn 0.375 0.926 -0.037
vn -0.003 -1.000 -0.014
vn -0.263 0.965 -0.004
vn 0.793 0.184 -0.582
vn -0.003 -0.530 -0.848
vn 0.786 -0.618 -0.022
vn 0.687 -0.564 -0.458
vn 0.066 0.995 -0.070
vn -1.000 -0.002 -0.004
vn -0.344 0.855 0.389
vn 0.921 0.210 0.328
vn 0.000 0.000 -1.000
vn -0.032 -0.003 0.999
vn -0.169 0.431 0.886
vn 0.437 0.900 0.002
vn -0.000 0.000 -1.000
vn 0.014 -0.874 0.486
vn 0.643 -0.326 0.693
vn 0.014 -0.003 1.000
vn 0.443 -0.093 0.892
vn 0.645 -0.764 0.000
vn -0.000 -0.000 -1.000
vn 0.790 -0.613 0.003
vn 0.980 0.197 0.004
vn 0.979 0.204 0.001
vn 0.648 -0.309 0.697
vn -1.000 0.001 -0.001
vn 0.902 -0.432 0.008
vn 0.698 -0.587 0.410
vn 0.985 -0.174 0.006
vn -0.893 -0.007 0.451
vn -0.369 0.929 0.001
vn 0.657 -0.343 0.671
vn -0.905 -0.425 0.009
vn 0.431 0.902 0.002
vn 0.841 -0.541 -0.007
vn -0.366 0.931 0.003
vn 0.556 -0.642 0.528
vn 0.405 0.800 0.442
vn -0.147 0.392 0.908
vn 0.000 -0.000 -1.000
vn 0.951 -0.310 0.011
vn 0.312 -0.262 0.913
vn 0.004 0.001 1.000
vn -0.279 -0.751 0.598
vn 0.171 0.468 0.867
vn 0.369 -0.419 0.830
vn -0.944 0.203 0.260
vn 0.428 0.760 0.489
vn -0.010 0.002 1.000
vn 0.570 -0.647 0.506
vn -0.314 0.814 0.488
vn 0.036 -0.421 0.906
vn 0.809 0.168 0.564
vn 0.000 -0.000 -1.000
vn 0.988 -0.153 -0.007
vn 0.638 -0.112 0.762
vn 0.855 -0.166 0.492
vn -0.011 -1.000 -0.002
vn 0.000 -0.000 -1.000
vn 0.009 -1.000 0.003
vn 0.857 -0.234 0.459
vn 0.648 -0.762 0.001
vn -0.997 0.004 0.075
vn -0.030 -0.779 0.626
vn 0.334 0.101 0.937

# Facets
f 1//1 2//1 3//1
f 2//2 4//2 5//2
f 2//3 1//3 4//3
f 6//4 7//4 8//4
f 9//5 10//5 11//5
f 12//6 13//6 14//6
f 15//7 16//7 17//7
f 18//8 19//8 6//8
f 20//9 21//9 22//9
f 23//10 24//10 25//10
f 10//11 1//11 21//11
f 11//12 10//12 26//12
f 27//13 28//13 26//13
f 20//14 15//14 27//14
f 15//15 20//15 29//15
f 4//16 9//16 30//16
f 31//17 16//17 32//17
f 33//18 8//18 5//18
f 25//19 24//19 31//19
f 20//20 27//20 10//20
f 17//21 28//21 15//21
f 8//22 7//22 31//22
f 23//23 3//23 24//23
f 6//24 34//24 7//24
f 8//25 31//25 5//25
f 13//26 12//26 20//26
f 14//27 13//27 35//27
f 16//28 31//28 7//28
f 8//29 9//29 18//29
f 23//30 25//30 14//30
f 4//31 30//31 5//31
f 30//32 33//32 5//32
f 28//33 7//33 34//33
f 10//34 9//34 4//34
f 10//35 4//35 1//35
f 15//36 28//36 27//36
f 22//37 21//37 1//37
f 26//38 10//38 27//38
f 16//39 7//39 17//39
f 14//40 32//40 12//40
f 35//41 1//41 3//41
f 23//42 35//42 3//42
f 12//43 16//43 29//43
f 33//44 9//44 8//44
f 35//45 22//45 1//45
f 16//46 12//46 32//46
f 34//47 6//47 19//47
f 20//48 22//48 13//48
f 2//49 5//49 31//49
f 18//50 6//50 8//50
f 28//51 34//51 26//51
f 22//52 35//52 13//52
f 7//53 28//53 17//53
f 25//54 31//54 32//54
f 9//55 33//55 30//55
f 20//56 10//56 21//56
f 12//57 29//57 20//57
f 11//58 26//58 19//58
f 34//59 19//59 26//59
f 3//60 2//60 24//60
f 11//61 18//61 9//61
f 16//62 15//62 29//62
f 31//63 24//63 2//63
f 23//64 14//64 35//64
f 32//65 14//65 25//65
f 19//66 18//66 11//66
f 36//67 37//67 38//67
f 39//68 40//68 41//68
f 42//69 43//69 44//69
f 45//70 37//70 46//70
f 47//71 48//71 49//71
f 49//72 50//72 41//72
f 51//73 39//73 42//73
f 36//74 52//74 51//74
f 53//75 54//75 55//75
f 56//76 57//76 58//76
f 59//77 60//77 48//77
f 59//78 57//78 61//78
f 46//79 62//79 54//79
f 51//80 63//80 64//80
f 46//81 65//81 62//81
f 63//82 42//82 44//82
f 42//83 63//83 51//83
f 57//84 56//84 61//84
f 40//85 36//85 38//85
f 64//86 56//86 65//86
f 65//87 58//87 62//87
f 44//88 64//88 63//88
f 49//89 38//89 47//89
f 40//90 52//90 36//90
f 58//91 65//91 56//91
f 37//92 53//92 38//92
f 52//93 39//93 51//93
f 46//94 64//94 65//94
f 40//95 39//95 52//95
f 58//96 55//96 54//96
f 39//97 50//97 42//97
f 49//98 60//98 50//98
f 51//99 64//99 46//99
f 64//100 66//100 56//100
f 48//101 58//101 57//101
f 48//102 57//102 59//102
f 47//103 38//103 53//103
f 50//104 60//104 43//104
f 55//105 58//105 48//105
f 40//106 49//106 41//106
f 42//107 50//107 43//107
f 48//108 60//108 49//108
f 54//109 62//109 58//109
f 41//110 50//110 39//110
f 55//111 48//111 47//111
f 43//112 59//112 44//112
f 51//113 37//113 36//113
f 66//114 64//114 44//114
f 44//115 59//115 61//115
f 66//116 44//116 61//116
f 45//117 53//117 37//117
f 51//118 46//118 37//118
f 53//119 45//119 54//119
f 61//120 56//120 66//120
f 54//121 45//121 46//121
f 49//122 40//122 38//122
f 55//123 47//123 53//123
f 43//124 60//124 59//124

# Thank you for using Spin 3D

