# Created using Spin 3D

# Vertex Array 
v 0.135 0.009 0.101
v 0.135 0.008 0.101
v 0.132 0.018 0.091
v 0.137 0.010 0.101
v 0.137 0.011 0.101
v 0.145 0.003 0.098
v 0.135 -0.011 0.100
v 0.135 -0.010 0.101
v 0.137 -0.011 0.101
v 0.135 -0.011 0.100
v 0.137 -0.012 0.100
v 0.136 -0.022 0.091
v 0.133 -0.021 0.091
v 0.135 -0.011 0.100
v 0.134 -0.021 0.091
v 0.137 -0.008 0.101
v 0.137 -0.004 0.101
v 0.145 0.000 0.098
v 0.137 -0.009 0.101
v 0.135 -0.008 0.101
v 0.137 -0.008 0.101
v 0.135 0.009 0.101
v 0.137 0.010 0.101
v 0.137 0.009 0.101
v 0.135 0.009 0.101
v 0.137 0.009 0.101
v 0.135 0.008 0.101
v 0.135 0.009 0.101
v 0.135 0.010 0.101
v 0.137 0.010 0.101
v 0.137 0.011 0.101
v 0.137 0.010 0.101
v 0.135 0.010 0.101
v 0.137 0.011 0.101
v 0.135 0.010 0.101
v 0.135 0.011 0.100
v 0.137 0.011 0.101
v 0.145 0.004 0.097
v 0.145 0.003 0.098
v 0.136 0.022 0.091
v 0.137 0.012 0.100
v 0.135 0.011 0.100
v 0.135 0.010 0.101
v 0.132 0.020 0.091
v 0.135 0.011 0.100
v 0.135 -0.008 0.101
v 0.135 -0.009 0.101
v 0.132 -0.018 0.091
v 0.137 -0.009 0.101
v 0.135 -0.009 0.101
v 0.135 -0.008 0.101
v 0.135 -0.010 0.101
v 0.137 -0.010 0.101
v 0.137 -0.011 0.101
v 0.137 -0.010 0.101
v 0.135 -0.009 0.101
v 0.137 -0.009 0.101
v 0.135 -0.009 0.101
v 0.137 -0.010 0.101
v 0.135 -0.010 0.101
v 0.135 -0.011 0.100
v 0.137 -0.011 0.101
v 0.137 -0.011 0.100
v 0.137 -0.012 0.100
v 0.135 -0.011 0.100
v 0.137 -0.011 0.100
v 0.137 -0.010 0.101
v 0.145 -0.003 0.098
v 0.137 -0.011 0.101
v 0.137 -0.009 0.101
v 0.145 -0.002 0.098
v 0.145 -0.003 0.098
v 0.145 -0.003 0.098
v 0.137 -0.010 0.101
v 0.137 -0.009 0.101
v 0.134 -0.021 0.091
v 0.133 -0.021 0.085
v 0.133 -0.021 0.091
v 0.133 -0.021 0.085
v 0.132 -0.020 0.085
v 0.133 -0.021 0.091
v 0.132 -0.019 0.091
v 0.135 -0.010 0.101
v 0.135 -0.011 0.100
v 0.135 -0.009 0.101
v 0.132 -0.019 0.091
v 0.132 -0.018 0.091
v 0.132 -0.019 0.091
v 0.135 -0.009 0.101
v 0.135 -0.010 0.101
v 0.137 -0.009 0.101
v 0.145 -0.001 0.098
v 0.145 -0.002 0.098
v 0.137 -0.008 0.101
v 0.145 -0.001 0.098
v 0.137 -0.009 0.101
v 0.145 -0.001 0.098
v 0.137 -0.008 0.101
v 0.145 0.000 0.098
v 0.145 -0.001 0.098
v 0.145 -0.003 0.098
v 0.145 -0.002 0.098
v 0.145 -0.003 0.098
v 0.145 -0.001 0.098
v 0.144 -0.007 0.096
v 0.137 -0.004 0.101
v 0.137 0.000 0.101
v 0.145 0.000 0.098
v 0.137 0.000 0.101
v 0.137 0.004 0.101
v 0.145 0.000 0.098
v 0.137 0.009 0.101
v 0.137 0.008 0.101
v 0.135 0.008 0.101
v 0.137 0.004 0.101
v 0.137 0.008 0.101
v 0.145 0.000 0.098
v 0.145 0.003 0.098
v 0.145 0.000 0.098
v 0.145 0.001 0.098
v 0.137 0.008 0.101
v 0.145 0.001 0.098
v 0.145 0.000 0.098
v 0.145 0.001 0.098
v 0.137 0.008 0.101
v 0.137 0.009 0.101
v 0.139 0.020 0.091
v 0.143 0.012 0.090
v 0.144 0.012 0.091
v 0.139 0.020 0.091
v 0.138 0.021 0.085
v 0.139 0.020 0.085
v 0.139 0.020 0.091
v 0.139 0.020 0.085
v 0.143 0.013 0.088
v 0.138 0.021 0.091
v 0.137 0.011 0.101
v 0.138 0.021 0.091
v 0.138 0.021 0.085
v 0.138 0.021 0.091
v 0.138 0.021 0.091
v 0.139 0.020 0.091
v 0.138 0.021 0.091
v 0.138 0.021 0.085
v 0.135 0.011 0.100
v 0.137 0.011 0.100
v 0.137 0.011 0.101
v 0.137 0.012 0.100
v 0.137 0.011 0.100
v 0.135 0.011 0.100
v 0.137 0.011 0.101
v 0.137 0.011 0.100
v 0.138 0.021 0.091
v 0.135 0.022 0.085
v 0.135 0.022 0.091
v 0.134 0.021 0.091
v 0.136 0.022 0.091
v 0.135 0.022 0.091
v 0.135 0.022 0.085
v 0.134 0.021 0.091
v 0.135 0.022 0.091
v 0.135 0.011 0.100
v 0.135 0.011 0.100
v 0.135 0.022 0.091
v 0.136 0.022 0.091
v 0.134 0.021 0.091
v 0.135 0.011 0.100
v 0.133 0.021 0.091
v 0.132 0.020 0.091
v 0.133 0.021 0.091
v 0.135 0.011 0.100
v 0.135 0.010 0.101
v 0.132 0.019 0.091
v 0.132 0.020 0.091
v 0.132 0.018 0.091
v 0.132 0.019 0.091
v 0.135 0.009 0.101
v 0.135 0.009 0.101
v 0.132 0.019 0.091
v 0.135 0.010 0.101
v 0.132 0.018 0.085
v 0.132 0.019 0.091
v 0.132 0.018 0.091
v 0.143 -0.012 0.089
v 0.144 -0.012 0.091
v 0.144 -0.011 0.093
v 0.144 -0.011 0.093
v 0.144 -0.012 0.091
v 0.139 -0.020 0.091
v 0.139 -0.020 0.091
v 0.144 -0.012 0.091
v 0.143 -0.012 0.089
v 0.144 -0.009 0.094
v 0.144 -0.007 0.096
v 0.144 -0.011 0.093
v 0.139 -0.020 0.091
v 0.144 -0.009 0.094
v 0.144 -0.011 0.093
v 0.144 -0.007 0.096
v 0.144 -0.009 0.094
v 0.139 -0.020 0.091
v 0.144 -0.007 0.096
v 0.138 -0.021 0.091
v 0.137 -0.011 0.101
v 0.139 -0.020 0.091
v 0.138 -0.021 0.091
v 0.144 -0.007 0.096
v 0.144 -0.007 0.096
v 0.137 -0.011 0.101
v 0.145 -0.005 0.097
v 0.145 -0.003 0.098
v 0.145 -0.005 0.097
v 0.137 -0.011 0.101
v 0.145 -0.005 0.097
v 0.145 -0.003 0.098
v 0.144 -0.007 0.096
v 0.132 -0.020 0.085
v 0.132 -0.020 0.091
v 0.133 -0.021 0.091
v 0.132 -0.019 0.091
v 0.132 -0.020 0.091
v 0.132 -0.020 0.085
v 0.133 -0.021 0.091
v 0.132 -0.020 0.091
v 0.135 -0.011 0.100
v 0.132 -0.019 0.091
v 0.135 -0.011 0.100
v 0.132 -0.020 0.091
v 0.132 -0.019 0.091
v 0.132 -0.018 0.085
v 0.132 -0.018 0.091
v 0.145 0.001 0.098
v 0.145 0.002 0.098
v 0.145 0.003 0.098
v 0.145 0.002 0.098
v 0.145 0.001 0.098
v 0.137 0.009 0.101
v 0.145 0.003 0.098
v 0.145 0.002 0.098
v 0.137 0.010 0.101
v 0.137 0.009 0.101
v 0.137 0.010 0.101
v 0.145 0.002 0.098
v 0.143 0.013 0.089
v 0.139 0.020 0.091
v 0.143 0.013 0.088
v 0.143 0.012 0.090
v 0.143 0.013 0.089
v 0.143 0.013 0.088
v 0.139 0.020 0.091
v 0.143 0.013 0.089
v 0.143 0.012 0.090
v 0.143 0.013 0.085
v 0.143 0.013 0.087
v 0.139 0.020 0.085
v 0.137 0.011 0.101
v 0.144 0.007 0.096
v 0.145 0.006 0.097
v 0.144 0.010 0.094
v 0.139 0.020 0.091
v 0.144 0.010 0.093
v 0.145 0.005 0.097
v 0.137 0.011 0.101
v 0.145 0.006 0.097
v 0.137 0.011 0.101
v 0.145 0.005 0.097
v 0.145 0.004 0.097
v 0.144 0.010 0.094
v 0.144 0.009 0.095
v 0.139 0.020 0.091
v 0.144 0.009 0.095
v 0.144 0.010 0.094
v 0.144 0.008 0.095
v 0.145 0.004 0.097
v 0.144 0.008 0.095
v 0.145 0.003 0.098
v 0.145 0.005 0.097
v 0.144 0.008 0.095
v 0.145 0.004 0.097
v 0.145 0.006 0.097
v 0.144 0.008 0.095
v 0.145 0.005 0.097
v 0.144 0.007 0.096
v 0.144 0.008 0.095
v 0.145 0.006 0.097
v 0.144 0.009 0.095
v 0.144 0.008 0.095
v 0.139 0.020 0.091
v 0.144 0.008 0.095
v 0.138 0.021 0.091
v 0.139 0.020 0.091
v 0.138 0.021 0.091
v 0.144 0.008 0.095
v 0.137 0.011 0.101
v 0.137 0.011 0.101
v 0.144 0.008 0.095
v 0.144 0.007 0.096
v 0.136 0.022 0.091
v 0.135 0.022 0.085
v 0.136 0.022 0.085
v 0.136 0.022 0.085
v 0.137 0.022 0.085
v 0.136 0.022 0.091
v 0.137 0.021 0.085
v 0.138 0.021 0.085
v 0.138 0.021 0.091
v 0.137 0.022 0.085
v 0.137 0.021 0.085
v 0.138 0.021 0.091
v 0.137 0.022 0.085
v 0.138 0.021 0.091
v 0.137 0.022 0.091
v 0.137 0.022 0.085
v 0.137 0.022 0.091
v 0.136 0.022 0.091
v 0.136 0.022 0.091
v 0.137 0.022 0.091
v 0.137 0.012 0.100
v 0.137 0.011 0.100
v 0.137 0.022 0.091
v 0.138 0.021 0.091
v 0.137 0.022 0.091
v 0.137 0.011 0.100
v 0.137 0.012 0.100
v 0.133 0.021 0.091
v 0.133 0.021 0.085
v 0.134 0.021 0.091
v 0.135 -0.022 0.085
v 0.135 -0.022 0.091
v 0.136 -0.022 0.091
v 0.135 -0.022 0.085
v 0.134 -0.021 0.091
v 0.135 -0.022 0.091
v 0.136 -0.022 0.091
v 0.135 -0.022 0.091
v 0.135 -0.011 0.100
v 0.134 -0.021 0.091
v 0.135 -0.011 0.100
v 0.135 -0.022 0.091
v 0.134 -0.021 0.085
v 0.133 -0.021 0.085
v 0.134 -0.021 0.091
v 0.135 -0.022 0.085
v 0.134 -0.021 0.085
v 0.134 -0.021 0.091
v 0.132 -0.019 0.091
v 0.132 -0.020 0.085
v 0.132 -0.019 0.085
v 0.132 -0.019 0.085
v 0.132 -0.018 0.085
v 0.132 -0.019 0.091
v 0.139 0.020 0.085
v 0.143 0.013 0.087
v 0.143 0.013 0.088
v 0.143 0.013 0.088
v 0.143 0.013 0.087
v 0.143 0.013 0.087
v 0.143 0.013 0.087
v 0.143 0.013 0.087
v 0.139 0.020 0.085
v 0.139 0.020 0.091
v 0.144 0.012 0.091
v 0.144 0.011 0.092
v 0.144 0.010 0.093
v 0.139 0.020 0.091
v 0.144 0.011 0.092
v 0.144 0.010 0.093
v 0.144 0.011 0.092
v 0.144 0.010 0.094
v 0.143 0.012 0.090
v 0.144 0.011 0.092
v 0.144 0.012 0.091
v 0.143 0.012 0.090
v 0.143 0.013 0.088
v 0.144 0.011 0.092
v 0.144 0.008 0.095
v 0.144 0.010 0.094
v 0.144 0.011 0.092
v 0.143 0.013 0.087
v 0.144 0.011 0.092
v 0.143 0.013 0.088
v 0.144 0.011 0.092
v 0.145 -0.001 0.098
v 0.145 0.000 0.098
v 0.145 0.003 0.098
v 0.144 0.011 0.092
v 0.145 0.000 0.098
v 0.144 0.008 0.095
v 0.144 0.011 0.092
v 0.145 0.003 0.098
v 0.144 -0.007 0.096
v 0.144 0.011 0.092
v 0.144 -0.011 0.093
v 0.145 -0.001 0.098
v 0.144 0.011 0.092
v 0.144 -0.007 0.096
v 0.143 0.013 0.087
v 0.143 0.013 0.085
v 0.144 0.011 0.092
v 0.134 0.021 0.091
v 0.134 0.021 0.085
v 0.135 0.022 0.085
v 0.133 0.021 0.085
v 0.134 0.021 0.085
v 0.134 0.021 0.091
v 0.132 0.020 0.091
v 0.132 0.020 0.085
v 0.133 0.021 0.091
v 0.133 0.021 0.091
v 0.132 0.020 0.085
v 0.133 0.021 0.085
v 0.132 0.019 0.091
v 0.132 0.020 0.085
v 0.132 0.020 0.091
v 0.137 -0.011 0.100
v 0.137 -0.011 0.101
v 0.138 -0.021 0.091
v 0.138 -0.021 0.091
v 0.138 -0.021 0.091
v 0.137 -0.011 0.101
v 0.135 -0.022 0.085
v 0.136 -0.022 0.091
v 0.136 -0.022 0.085
v 0.139 -0.020 0.085
v 0.143 -0.012 0.089
v 0.143 -0.013 0.087
v 0.143 -0.012 0.089
v 0.139 -0.020 0.085
v 0.139 -0.020 0.091
v 0.132 0.019 0.091
v 0.132 0.018 0.085
v 0.132 0.019 0.085
v 0.132 0.019 0.085
v 0.132 0.020 0.085
v 0.132 0.019 0.091
v 0.137 -0.011 0.100
v 0.137 -0.022 0.091
v 0.137 -0.012 0.100
v 0.138 -0.021 0.091
v 0.137 -0.022 0.091
v 0.137 -0.011 0.100
v 0.137 -0.012 0.100
v 0.137 -0.022 0.091
v 0.136 -0.022 0.091
v 0.143 -0.013 0.085
v 0.139 -0.020 0.085
v 0.143 -0.013 0.087
v 0.143 -0.012 0.089
v 0.143 -0.013 0.085
v 0.143 -0.013 0.087
v 0.143 -0.013 0.085
v 0.143 -0.012 0.089
v 0.144 -0.011 0.093
v 0.144 0.011 0.092
v 0.143 0.013 0.085
v 0.143 -0.013 0.085
v 0.144 0.011 0.092
v 0.143 -0.013 0.085
v 0.144 -0.011 0.093
v 0.138 -0.021 0.085
v 0.138 -0.021 0.091
v 0.139 -0.020 0.091
v 0.139 -0.020 0.085
v 0.138 -0.021 0.085
v 0.139 -0.020 0.091
v 0.138 -0.021 0.091
v 0.138 -0.021 0.085
v 0.138 -0.021 0.091
v 0.138 -0.021 0.091
v 0.138 -0.021 0.085
v 0.137 -0.021 0.085
v 0.138 -0.021 0.091
v 0.137 -0.021 0.085
v 0.137 -0.022 0.085
v 0.137 -0.022 0.091
v 0.138 -0.021 0.091
v 0.137 -0.022 0.085
v 0.136 -0.022 0.085
v 0.136 -0.022 0.091
v 0.137 -0.022 0.085
v 0.137 -0.022 0.091
v 0.137 -0.022 0.085
v 0.136 -0.022 0.091
v 0.132 -0.018 0.091
v 0.135 0.008 0.101
v 0.135 -0.008 0.101
v 0.132 -0.018 0.091
v 0.132 0.018 0.091
v 0.135 0.008 0.101
v 0.135 0.008 0.101
v 0.137 0.008 0.101
v 0.135 -0.008 0.101
v 0.137 -0.008 0.101
v 0.137 0.008 0.101
v 0.137 -0.004 0.101
v 0.137 -0.008 0.101
v 0.135 -0.008 0.101
v 0.137 0.008 0.101
v 0.137 0.000 0.101
v 0.137 0.008 0.101
v 0.137 0.004 0.101
v 0.137 0.000 0.101
v 0.137 -0.004 0.101
v 0.137 0.008 0.101
v 0.132 -0.018 0.091
v 0.132 -0.018 0.085
v 0.132 0.018 0.091
v 0.132 -0.018 0.085
v 0.132 0.018 0.085
v 0.132 0.018 0.091
v 0.139 0.020 0.085
v 0.138 0.021 0.085
v 0.137 -0.022 0.085
v 0.133 0.021 0.085
v 0.137 -0.022 0.085
v 0.134 0.021 0.085
v 0.133 -0.021 0.085
v 0.137 -0.022 0.085
v 0.132 -0.020 0.085
v 0.136 0.022 0.085
v 0.137 -0.022 0.085
v 0.137 0.022 0.085
v 0.137 0.021 0.085
v 0.137 0.022 0.085
v 0.137 -0.022 0.085
v 0.139 0.020 0.085
v 0.137 -0.022 0.085
v 0.143 0.013 0.085
v 0.132 -0.018 0.085
v 0.137 -0.022 0.085
v 0.132 0.018 0.085
v 0.134 -0.021 0.085
v 0.135 -0.022 0.085
v 0.137 -0.022 0.085
v 0.132 0.020 0.085
v 0.137 -0.022 0.085
v 0.133 0.021 0.085
v 0.136 0.022 0.085
v 0.135 0.022 0.085
v 0.137 -0.022 0.085
v 0.137 0.021 0.085
v 0.137 -0.022 0.085
v 0.138 0.021 0.085
v 0.132 -0.019 0.085
v 0.137 -0.022 0.085
v 0.132 -0.018 0.085
v 0.134 -0.021 0.085
v 0.137 -0.022 0.085
v 0.133 -0.021 0.085
v 0.138 -0.021 0.085
v 0.139 -0.020 0.085
v 0.137 -0.022 0.085
v 0.132 -0.019 0.085
v 0.132 -0.020 0.085
v 0.137 -0.022 0.085
v 0.134 0.021 0.085
v 0.137 -0.022 0.085
v 0.135 0.022 0.085
v 0.143 -0.013 0.085
v 0.137 -0.022 0.085
v 0.139 -0.020 0.085
v 0.136 -0.022 0.085
v 0.137 -0.022 0.085
v 0.135 -0.022 0.085
v 0.132 0.019 0.085
v 0.137 -0.022 0.085
v 0.132 0.020 0.085
v 0.132 0.019 0.085
v 0.132 0.018 0.085
v 0.137 -0.022 0.085
v 0.143 -0.013 0.085
v 0.143 0.013 0.085
v 0.137 -0.022 0.085
v 0.138 -0.021 0.085
v 0.137 -0.022 0.085
v 0.137 -0.021 0.085

# Normal Array
vn -0.933 0.039 0.357
vn 0.549 0.260 0.794
vn -0.022 -0.491 0.871
vn -0.012 -0.656 0.755
vn -0.435 -0.568 0.699
vn 0.393 -0.025 0.919
vn 0.000 -0.089 0.996
vn 0.013 0.265 0.964
vn -0.018 0.114 0.993
vn -0.026 0.341 0.940
vn 0.013 0.430 0.903
vn -0.015 0.535 0.845
vn 0.550 0.262 0.793
vn -0.003 0.657 0.754
vn -0.736 0.356 0.575
vn -0.936 -0.032 0.351
vn -0.006 -0.097 0.995
vn 0.009 -0.431 0.903
vn 0.005 -0.266 0.964
vn -0.011 -0.291 0.957
vn 0.002 -0.557 0.831
vn -0.003 -0.642 0.767
vn 0.549 -0.260 0.794
vn 0.503 -0.178 0.846
vn 0.508 -0.187 0.841
vn -0.608 -0.793 -0.017
vn -0.793 -0.609 -0.017
vn -0.791 -0.295 0.537
vn -0.902 -0.119 0.415
vn -0.900 -0.122 0.418
vn 0.450 -0.101 0.887
vn 0.442 -0.092 0.892
vn 0.407 -0.042 0.912
vn 0.985 0.001 -0.173
vn 0.986 -0.000 -0.167
vn 0.385 -0.008 0.923
vn 0.385 0.008 0.923
vn 0.000 0.089 0.996
vn 0.393 0.025 0.919
vn 0.986 0.000 -0.165
vn 0.407 0.042 0.912
vn 0.443 0.092 0.892
vn 0.867 0.489 0.099
vn 0.793 0.609 -0.017
vn 0.860 0.509 -0.017
vn 0.449 0.584 0.677
vn 0.609 0.793 -0.017
vn 0.793 0.609 -0.017
vn -0.005 0.555 0.832
vn 0.004 0.642 0.766
vn 0.413 0.597 0.688
vn -0.383 0.924 -0.017
vn -0.130 0.991 -0.017
vn -0.260 0.628 0.733
vn -0.086 0.655 0.750
vn -0.436 0.568 0.698
vn -0.610 0.468 0.640
vn -0.772 0.319 0.550
vn -0.902 0.119 0.415
vn -0.883 0.155 0.443
vn -0.991 0.131 -0.017
vn 0.986 0.003 -0.170
vn 0.859 -0.485 0.164
vn 0.869 -0.490 0.065
vn 0.986 -0.000 -0.168
vn 0.821 -0.490 0.295
vn 0.712 -0.499 0.495
vn 0.614 -0.499 0.612
vn 0.653 -0.501 0.569
vn 0.615 -0.428 0.662
vn 0.575 -0.302 0.760
vn 0.985 0.001 -0.170
vn -0.793 -0.609 -0.017
vn -0.924 -0.382 -0.017
vn -0.610 -0.468 0.640
vn -0.771 -0.319 0.551
vn -0.991 -0.131 -0.017
vn 0.984 -0.002 -0.176
vn 0.462 0.117 0.879
vn 0.509 0.190 0.840
vn 0.506 0.186 0.842
vn 0.865 0.502 0.007
vn 0.986 0.009 -0.165
vn 0.868 0.494 0.050
vn 0.868 0.482 -0.118
vn 0.614 0.439 0.656
vn 0.819 0.491 0.296
vn 0.603 0.383 0.700
vn 0.582 0.323 0.746
vn 0.774 0.497 0.393
vn 0.987 0.008 -0.159
vn 0.987 0.002 -0.163
vn 0.986 -0.001 -0.169
vn 0.986 0.002 -0.164
vn 0.985 -0.004 -0.174
vn 0.708 0.501 0.497
vn 0.653 0.501 0.567
vn 0.615 0.498 0.611
vn 0.615 0.494 0.614
vn -0.130 0.991 -0.017
vn 0.131 0.991 -0.017
vn 0.609 0.793 -0.017
vn 0.382 0.924 -0.017
vn 0.382 0.924 -0.017
vn 0.131 0.991 -0.017
vn 0.087 0.659 0.747
vn 0.264 0.639 0.722
vn 0.155 0.654 0.741
vn -0.609 0.793 -0.017
vn -0.130 -0.991 -0.017
vn -0.383 -0.924 -0.017
vn -0.086 -0.655 0.751
vn -0.260 -0.628 0.734
vn -0.609 -0.793 -0.017
vn -0.383 -0.924 -0.017
vn -0.924 -0.383 -0.017
vn -0.991 -0.130 -0.017
vn 0.865 0.501 -0.041
vn 0.986 0.017 -0.165
vn 0.867 0.492 -0.075
vn 0.860 0.487 0.154
vn 0.845 0.488 0.219
vn 0.986 0.004 -0.165
vn 0.985 -0.004 -0.170
vn 0.986 0.000 -0.168
vn 0.986 -0.000 -0.169
vn 0.986 -0.000 -0.168
vn 0.986 0.000 -0.168
vn 0.986 -0.000 -0.169
vn 0.986 -0.000 -0.168
vn 0.986 0.000 -0.168
vn 0.986 0.000 -0.168
vn 0.986 0.000 -0.168
vn -0.383 0.924 -0.017
vn -0.609 0.793 -0.017
vn -0.793 0.609 -0.017
vn -0.793 0.609 -0.017
vn -0.924 0.382 -0.017
vn 0.412 -0.597 0.688
vn 0.448 -0.584 0.677
vn -0.130 -0.991 -0.017
vn 0.862 -0.506 -0.020
vn 0.862 -0.507 -0.017
vn -0.991 0.130 -0.017
vn -0.924 0.383 -0.017
vn 0.156 -0.654 0.741
vn 0.264 -0.639 0.722
vn 0.087 -0.659 0.747
vn 0.869 -0.482 -0.109
vn 0.986 -0.001 -0.168
vn 0.986 -0.000 -0.168
vn 0.986 0.000 -0.168
vn 0.986 0.000 -0.168
vn 0.793 -0.609 -0.017
vn 0.793 -0.609 -0.017
vn 0.609 -0.793 -0.017
vn 0.609 -0.793 -0.017
vn 0.382 -0.924 -0.017
vn 0.382 -0.924 -0.017
vn 0.131 -0.991 -0.017
vn 0.131 -0.991 -0.017
vn -0.946 0.000 0.323
vn -0.946 0.000 0.323
vn -0.000 0.000 1.000
vn 0.000 0.000 1.000
vn 0.000 -0.000 1.000
vn 0.000 0.000 1.000
vn 0.000 0.000 1.000
vn -1.000 0.000 -0.017
vn -1.000 0.000 -0.017
vn -0.000 0.000 -1.000
vn 0.000 0.000 -1.000
vn 0.000 0.000 -1.000
vn 0.000 0.000 -1.000
vn -0.000 0.000 -1.000
vn 0.000 -0.000 -1.000
vn 0.000 0.000 -1.000
vn 0.000 0.000 -1.000
vn 0.000 0.000 -1.000
vn 0.000 -0.000 -1.000
vn 0.000 -0.000 -1.000
vn 0.000 0.000 -1.000
vn 0.000 0.000 -1.000
vn -0.000 0.000 -1.000
vn 0.000 0.000 -1.000
vn 0.000 0.000 -1.000
vn 0.000 0.000 -1.000
vn 0.000 0.000 -1.000
vn 0.000 0.000 -1.000
vn 0.000 -0.000 -1.000
vn -0.000 0.000 -1.000
vn 0.000 0.000 -1.000

# Facets
f 1//1 3//1 2//1
f 4//2 6//2 5//2
f 7//3 9//3 8//3
f 10//4 12//4 11//4
f 13//5 15//5 14//5
f 16//6 18//6 17//6
f 19//7 21//7 20//7
f 22//8 24//8 23//8
f 25//9 27//9 26//9
f 28//10 30//10 29//10
f 31//11 33//11 32//11
f 34//12 36//12 35//12
f 37//13 39//13 38//13
f 40//14 42//14 41//14
f 43//15 45//15 44//15
f 46//16 48//16 47//16
f 49//17 51//17 50//17
f 52//18 54//18 53//18
f 55//19 57//19 56//19
f 58//20 60//20 59//20
f 61//21 63//21 62//21
f 64//22 66//22 65//22
f 67//23 69//23 68//23
f 70//24 72//24 71//24
f 73//25 75//25 74//25
f 76//26 78//26 77//26
f 79//27 81//27 80//27
f 82//28 84//28 83//28
f 85//29 87//29 86//29
f 88//30 90//30 89//30
f 91//31 93//31 92//31
f 94//32 96//32 95//32
f 97//33 99//33 98//33
f 100//34 102//34 101//34
f 103//35 105//35 104//35
f 106//36 108//36 107//36
f 109//37 111//37 110//37
f 112//38 114//38 113//38
f 115//39 117//39 116//39
f 118//40 120//40 119//40
f 121//41 123//41 122//41
f 124//42 126//42 125//42
f 127//43 129//43 128//43
f 130//44 132//44 131//44
f 133//45 135//45 134//45
f 136//46 138//46 137//46
f 139//47 141//47 140//47
f 142//48 144//48 143//48
f 145//49 147//49 146//49
f 148//50 150//50 149//50
f 151//51 153//51 152//51
f 154//52 156//52 155//52
f 157//53 159//53 158//53
f 160//54 162//54 161//54
f 163//55 165//55 164//55
f 166//56 168//56 167//56
f 169//57 171//57 170//57
f 172//58 174//58 173//58
f 175//59 177//59 176//59
f 178//60 180//60 179//60
f 181//61 183//61 182//61
f 184//62 186//62 185//62
f 187//63 189//63 188//63
f 190//64 192//64 191//64
f 193//65 195//65 194//65
f 196//66 198//66 197//66
f 199//67 201//67 200//67
f 202//68 204//68 203//68
f 205//69 207//69 206//69
f 208//70 210//70 209//70
f 211//71 213//71 212//71
f 214//72 216//72 215//72
f 217//73 219//73 218//73
f 220//74 222//74 221//74
f 223//75 225//75 224//75
f 226//76 228//76 227//76
f 229//77 231//77 230//77
f 232//78 234//78 233//78
f 235//79 237//79 236//79
f 238//80 240//80 239//80
f 241//81 243//81 242//81
f 244//82 246//82 245//82
f 247//83 249//83 248//83
f 250//84 252//84 251//84
f 253//85 255//85 254//85
f 256//86 258//86 257//86
f 259//87 261//87 260//87
f 262//88 264//88 263//88
f 265//89 267//89 266//89
f 268//90 270//90 269//90
f 271//91 273//91 272//91
f 274//92 276//92 275//92
f 277//93 279//93 278//93
f 280//94 282//94 281//94
f 283//95 285//95 284//95
f 286//96 288//96 287//96
f 289//97 291//97 290//97
f 292//98 294//98 293//98
f 295//99 297//99 296//99
f 298//100 300//100 299//100
f 301//101 303//101 302//101
f 304//102 306//102 305//102
f 307//103 309//103 308//103
f 310//104 312//104 311//104
f 313//105 315//105 314//105
f 316//106 318//106 317//106
f 319//107 321//107 320//107
f 322//108 324//108 323//108
f 325//109 327//109 326//109
f 328//110 330//110 329//110
f 331//111 333//111 332//111
f 334//112 336//112 335//112
f 337//113 339//113 338//113
f 340//114 342//114 341//114
f 343//115 345//115 344//115
f 346//116 348//116 347//116
f 349//117 351//117 350//117
f 352//118 354//118 353//118
f 355//119 357//119 356//119
f 358//120 360//120 359//120
f 361//121 363//121 362//121
f 364//122 366//122 365//122
f 367//123 369//123 368//123
f 370//124 372//124 371//124
f 373//125 375//125 374//125
f 376//126 378//126 377//126
f 379//127 381//127 380//127
f 382//128 384//128 383//128
f 385//129 387//129 386//129
f 388//130 390//130 389//130
f 391//131 393//131 392//131
f 394//132 396//132 395//132
f 397//133 399//133 398//133
f 400//134 402//134 401//134
f 403//135 405//135 404//135
f 406//136 408//136 407//136
f 409//137 411//137 410//137
f 412//138 414//138 413//138
f 415//139 417//139 416//139
f 418//140 420//140 419//140
f 421//141 423//141 422//141
f 424//142 426//142 425//142
f 427//143 429//143 428//143
f 430//144 432//144 431//144
f 433//145 435//145 434//145
f 436//146 438//146 437//146
f 439//147 441//147 440//147
f 442//148 444//148 443//148
f 445//149 447//149 446//149
f 448//150 450//150 449//150
f 451//151 453//151 452//151
f 454//152 456//152 455//152
f 457//153 459//153 458//153
f 460//154 462//154 461//154
f 463//155 465//155 464//155
f 466//156 468//156 467//156
f 469//157 471//157 470//157
f 472//158 474//158 473//158
f 475//159 477//159 476//159
f 478//160 480//160 479//160
f 481//161 483//161 482//161
f 484//162 486//162 485//162
f 487//163 489//163 488//163
f 490//164 492//164 491//164
f 493//165 495//165 494//165
f 496//166 498//166 497//166
f 499//167 501//167 500//167
f 502//168 504//168 503//168
f 505//169 507//169 506//169
f 508//170 510//170 509//170
f 511//171 513//171 512//171
f 514//172 516//172 515//172
f 517//173 519//173 518//173
f 520//174 522//174 521//174
f 523//175 525//175 524//175
f 526//176 528//176 527//176
f 529//177 531//177 530//177
f 532//178 534//178 533//178
f 535//179 537//179 536//179
f 538//180 540//180 539//180
f 541//181 543//181 542//181
f 544//182 546//182 545//182
f 547//183 549//183 548//183
f 550//184 552//184 551//184
f 553//185 555//185 554//185
f 556//186 558//186 557//186
f 559//187 561//187 560//187
f 562//188 564//188 563//188
f 565//189 567//189 566//189
f 568//190 570//190 569//190
f 571//191 573//191 572//191
f 574//192 576//192 575//192

# Thank you for using Spin 3D

