# Created using Spin 3D

# Vertex Array 
v -0.042 0.138 0.051
v -0.007 0.141 0.051
v -0.051 0.138 0.000
v -0.007 0.141 -0.051
v -0.042 0.138 -0.051
v 0.032 0.113 0.051
v 0.032 0.113 -0.051
v 0.032 0.081 -0.051
v 0.032 0.081 0.051
v 0.032 0.048 0.042
v 0.032 0.048 -0.042
v -0.038 0.048 -0.043
v -0.038 0.048 0.043
v -0.038 0.048 0.000
v -0.038 0.056 -0.047
v -0.049 0.056 0.000
v -0.039 0.086 -0.050
v -0.054 0.115 0.000
v -0.040 0.115 -0.051
v -0.038 0.056 0.047
v -0.040 0.115 0.051
v -0.039 0.086 0.050

# Normal Array
vn -0.062 0.998 0.010
vn -0.062 0.998 0.000
vn -0.043 0.999 -0.007
vn 0.578 0.816 -0.000
vn 0.578 0.816 0.000
vn 1.000 0.000 -0.000
vn 1.000 0.000 0.000
vn 1.000 0.000 0.000
vn 1.000 0.000 0.000
vn -0.000 -1.000 0.000
vn -0.000 -1.000 0.000
vn 0.000 -1.000 0.000
vn -0.968 -0.066 -0.243
vn -0.962 -0.075 -0.262
vn -0.971 -0.051 -0.235
vn -0.999 0.035 0.000
vn -0.562 -0.815 0.144
vn -0.568 -0.823 0.000
vn -0.965 -0.103 -0.243
vn -0.982 -0.094 0.163
vn -0.955 0.138 0.264
vn -0.961 -0.092 -0.262
vn -0.977 0.141 -0.160
vn -0.967 -0.066 0.247
vn -0.963 -0.051 0.266
vn -0.965 -0.076 0.252
vn 0.011 -0.492 -0.870
vn -0.017 -0.088 -0.996
vn 0.045 -0.260 -0.965
vn 0.013 -0.243 0.970
vn -0.017 -0.088 0.996
vn 0.112 -0.436 0.893
vn -0.000 0.000 1.000
vn -0.013 -0.027 1.000
vn 0.000 -0.000 1.000
vn -0.000 0.000 1.000
vn 0.000 0.000 -1.000
vn 0.000 0.000 -1.000
vn -0.013 -0.027 -1.000
vn 0.000 -0.000 -1.000

# Facets
f 1//1 2//1 3//1
f 2//2 4//2 5//2
f 2//3 5//3 3//3
f 4//4 2//4 6//4
f 6//5 7//5 4//5
f 7//6 6//6 8//6
f 6//7 9//7 10//7
f 10//8 11//8 8//8
f 6//9 10//9 8//9
f 11//10 10//10 12//10
f 10//11 13//11 14//11
f 10//12 14//12 12//12
f 15//13 16//13 17//13
f 16//14 18//14 19//14
f 16//15 19//15 17//15
f 14//16 13//16 20//16
f 20//17 16//17 14//17
f 12//18 14//18 16//18
f 16//19 15//19 12//19
f 21//20 1//20 3//20
f 3//21 18//21 21//21
f 5//22 19//22 18//22
f 18//23 3//23 5//23
f 20//24 22//24 16//24
f 22//25 21//25 18//25
f 22//26 18//26 16//26
f 12//27 15//27 11//27
f 15//28 17//28 8//28
f 15//29 8//29 11//29
f 10//30 9//30 13//30
f 9//31 22//31 20//31
f 9//32 20//32 13//32
f 1//33 21//33 2//33
f 21//34 22//34 9//34
f 9//35 6//35 2//35
f 21//36 9//36 2//36
f 5//37 4//37 19//37
f 4//38 7//38 8//38
f 8//39 17//39 19//39
f 4//40 8//40 19//40

# Thank you for using Spin 3D

