# Created using Spin 3D

# Vertex Array 
v 0.042 0.021 0.213
v 0.043 0.023 0.217
v -0.000 0.021 0.217
v -0.000 0.023 0.222
v -0.000 0.037 0.217
v -0.000 0.036 0.222
v 0.043 0.036 0.217
v 0.084 0.023 0.205
v 0.042 0.037 0.213
v 0.084 0.036 0.205
v 0.123 0.023 0.184
v 0.083 0.021 0.200
v 0.121 0.021 0.180
v 0.121 0.037 0.180
v -0.000 0.021 -0.218
v -0.000 0.023 -0.223
v 0.043 0.023 -0.219
v 0.156 0.023 0.157
v 0.042 0.021 -0.214
v 0.084 0.023 -0.206
v 0.184 0.023 0.123
v 0.154 0.021 0.153
v 0.083 0.021 -0.202
v 0.123 0.023 -0.186
v 0.205 0.023 0.084
v 0.181 0.021 0.120
v 0.121 0.021 -0.181
v 0.156 0.023 -0.158
v 0.217 0.023 0.043
v 0.201 0.021 0.083
v 0.154 0.021 -0.154
v 0.184 0.023 -0.124
v 0.181 0.021 -0.121
v 0.222 0.023 -0.001
v 0.213 0.021 0.042
v 0.205 0.023 -0.086
v 0.201 0.021 -0.084
v 0.213 0.021 -0.043
v 0.217 0.023 -0.044
v 0.083 0.037 0.200
v 0.213 0.037 0.042
v 0.217 0.021 -0.001
v 0.213 0.037 -0.043
v 0.201 0.037 -0.084
v 0.181 0.037 -0.121
v 0.121 0.037 -0.181
v 0.154 0.037 -0.154
v 0.083 0.037 -0.202
v 0.042 0.037 -0.214
v 0.123 0.036 0.184
v 0.154 0.037 0.153
v 0.181 0.037 0.120
v 0.201 0.037 0.083
v 0.217 0.037 -0.001
v -0.000 0.037 -0.218
v 0.043 0.027 0.222
v 0.043 0.031 0.222
v -0.000 0.031 0.227
v 0.085 0.027 0.209
v 0.085 0.031 0.209
v 0.125 0.027 0.188
v 0.125 0.031 0.188
v 0.159 0.027 0.160
v 0.159 0.031 0.160
v -0.000 0.027 -0.228
v -0.000 0.031 -0.228
v 0.043 0.031 -0.224
v 0.043 0.027 -0.224
v 0.187 0.027 0.126
v 0.187 0.031 0.126
v 0.156 0.036 0.157
v -0.000 0.036 -0.223
v 0.085 0.031 -0.211
v 0.085 0.027 -0.211
v 0.208 0.027 0.086
v 0.208 0.031 0.086
v 0.184 0.036 0.123
v 0.043 0.036 -0.219
v 0.125 0.031 -0.190
v 0.125 0.027 -0.190
v 0.221 0.027 0.044
v 0.221 0.031 0.044
v 0.205 0.036 0.084
v 0.123 0.036 -0.186
v 0.084 0.036 -0.206
v 0.159 0.031 -0.161
v 0.159 0.027 -0.161
v 0.226 0.031 -0.001
v 0.217 0.036 0.043
v 0.156 0.036 -0.158
v 0.187 0.031 -0.127
v 0.187 0.027 -0.127
v 0.226 0.027 -0.001
v 0.221 0.027 -0.045
v 0.221 0.031 -0.045
v 0.222 0.036 -0.001
v 0.184 0.036 -0.124
v 0.208 0.031 -0.088
v 0.208 0.027 -0.088
v 0.217 0.036 -0.044
v 0.205 0.036 -0.086
v -0.000 0.027 0.227

# Normal Array
vn 0.024 -0.971 0.239
vn 0.024 -0.972 0.235
vn 0.024 0.972 0.235
vn 0.072 -0.969 0.238
vn 0.072 0.969 0.238
vn 0.121 -0.967 0.226
vn 0.000 0.000 0.000
vn 0.024 -0.972 -0.235
vn 0.167 -0.965 0.204
vn 0.072 -0.969 -0.238
vn 0.209 -0.963 0.172
vn 0.121 -0.967 -0.226
vn 0.244 -0.961 0.130
vn 0.167 -0.965 -0.204
vn 0.268 -0.960 0.081
vn 0.209 -0.963 -0.172
vn 0.000 0.000 0.000
vn 0.244 -0.961 -0.130
vn 0.281 -0.959 -0.028
vn 0.268 -0.960 -0.081
vn -0.098 0.000 -0.995
vn -0.290 0.000 -0.957
vn -0.471 0.000 -0.882
vn 0.000 0.000 0.000
vn -0.995 0.000 -0.098
vn -0.957 0.000 0.290
vn 0.000 0.000 0.000
vn -0.882 0.000 0.471
vn -0.773 0.000 0.634
vn -0.634 0.000 0.773
vn -0.634 0.000 0.773
vn -0.471 0.000 0.882
vn -0.290 0.000 0.957
vn -0.098 0.000 0.995
vn 0.024 0.971 0.239
vn 0.072 -0.969 0.238
vn 0.072 0.969 0.238
vn 0.000 0.000 0.000
vn 0.121 -0.967 0.226
vn 0.121 0.967 0.226
vn 0.121 0.967 0.226
vn 0.024 -0.971 -0.239
vn 0.167 -0.965 0.204
vn 0.072 -0.969 -0.238
vn 0.209 -0.963 0.172
vn 0.121 -0.967 -0.226
vn 0.244 -0.961 0.130
vn 0.000 0.000 0.000
vn 0.167 -0.965 -0.204
vn 0.268 -0.960 0.081
vn 0.000 0.000 0.000
vn 0.209 -0.963 -0.172
vn 0.000 0.000 0.000
vn 0.281 -0.959 0.028
vn 0.281 -0.959 0.028
vn 0.244 -0.961 -0.130
vn 0.000 0.000 0.000
vn 0.281 -0.959 -0.028
vn 0.268 -0.960 -0.081
vn 0.000 0.000 0.000
vn -0.098 -0.000 -0.995
vn -0.290 -0.000 -0.957
vn -0.471 0.000 -0.882
vn -0.634 0.000 -0.773
vn 0.000 0.000 0.000
vn 0.000 0.000 0.000
vn 0.000 0.000 0.000
vn -0.634 -0.000 -0.773
vn 0.000 0.000 0.000
vn -0.773 -0.000 -0.634
vn 0.000 0.000 0.000
vn -0.773 -0.000 -0.634
vn 0.000 0.000 0.000
vn -0.882 -0.000 -0.471
vn 0.000 0.000 0.000
vn -0.882 -0.000 -0.471
vn -0.957 -0.000 -0.290
vn 0.000 -0.000 0.000
vn -0.957 0.000 -0.290
vn -0.995 0.000 -0.098
vn 0.000 0.000 0.000
vn -0.995 -0.000 0.098
vn -0.995 0.000 0.098
vn 0.000 0.000 -0.000
vn 0.000 0.000 0.000
vn -0.957 0.000 0.290
vn 0.000 0.000 0.000
vn -0.882 0.000 0.471
vn -0.773 0.000 0.634
vn -0.471 0.000 0.882
vn -0.290 0.000 0.957
vn -0.098 0.000 0.995
vn 0.102 -0.000 0.995
vn 0.068 -0.735 0.675
vn 0.290 -0.000 0.957
vn 0.068 0.740 0.669
vn 0.201 -0.723 0.661
vn 0.471 -0.000 0.882
vn 0.201 0.723 0.661
vn 0.331 -0.711 0.620
vn 0.634 -0.000 0.773
vn 0.331 0.711 0.620
vn 0.102 0.000 -0.995
vn 0.068 -0.740 -0.669
vn 0.453 -0.700 0.552
vn 0.773 -0.000 0.634
vn 0.453 0.700 0.552
vn 0.068 0.740 -0.669
vn 0.290 0.000 -0.957
vn 0.201 -0.723 -0.661
vn 0.560 -0.690 0.459
vn 0.882 -0.000 0.471
vn 0.560 0.690 0.459
vn 0.167 0.965 0.204
vn 0.201 0.723 -0.661
vn 0.024 0.972 -0.235
vn 0.471 0.000 -0.882
vn 0.331 -0.711 -0.620
vn 0.645 -0.682 0.345
vn 0.957 -0.000 0.290
vn 0.645 0.682 0.345
vn 0.331 0.711 -0.620
vn 0.331 0.711 -0.620
vn 0.072 0.969 -0.238
vn 0.634 0.000 -0.773
vn 0.453 -0.700 -0.552
vn 0.705 -0.676 0.214
vn 0.995 0.000 0.098
vn 0.705 0.676 0.214
vn 0.453 0.700 -0.552
vn 0.453 0.700 -0.552
vn 0.121 0.967 -0.226
vn 0.773 0.000 -0.634
vn 0.560 -0.690 -0.459
vn 0.736 -0.673 0.072
vn 0.995 0.000 -0.098
vn 0.736 0.673 0.072
vn 0.560 0.690 -0.459
vn 0.560 0.690 -0.459
vn 0.167 0.965 -0.204
vn 0.882 0.000 -0.471
vn 0.645 -0.682 -0.345
vn 0.736 -0.673 -0.072
vn 0.957 0.000 -0.290
vn 0.736 0.673 -0.072
vn 0.645 0.682 -0.345
vn 0.645 0.682 -0.345
vn 0.209 0.963 -0.172
vn 0.705 -0.676 -0.214
vn 0.705 0.676 -0.214
vn 0.281 0.959 -0.028
vn 0.244 0.961 -0.130
vn 0.268 0.960 -0.081
vn 0.102 0.001 0.995
vn 0.068 -0.740 0.669
vn 0.290 -0.000 0.957
vn 0.068 0.735 0.675
vn 0.201 -0.723 0.661
vn 0.471 -0.000 0.882
vn 0.201 0.723 0.661
vn 0.331 -0.711 0.620
vn 0.634 -0.000 0.773
vn 0.331 0.711 0.620
vn 0.102 0.000 -0.995
vn 0.068 -0.735 -0.675
vn 0.453 -0.700 0.552
vn 0.773 -0.000 0.634
vn 0.453 0.700 0.552
vn 0.068 0.735 -0.675
vn 0.290 0.000 -0.957
vn 0.201 -0.723 -0.661
vn 0.560 -0.690 0.459
vn 0.882 -0.000 0.471
vn 0.560 0.690 0.459
vn 0.167 0.965 0.204
vn 0.201 0.723 -0.661
vn 0.024 0.971 -0.239
vn 0.471 0.000 -0.882
vn 0.331 -0.711 -0.620
vn 0.645 -0.682 0.345
vn 0.957 -0.000 0.290
vn 0.645 0.682 0.345
vn 0.209 0.963 0.172
vn 0.000 0.000 -0.000
vn 0.209 0.963 0.172
vn 0.072 0.969 -0.238
vn 0.634 0.000 -0.773
vn 0.453 -0.700 -0.552
vn 0.705 -0.676 0.214
vn 0.995 -0.000 0.098
vn 0.705 0.676 0.214
vn 0.244 0.961 0.130
vn 0.000 0.000 -0.000
vn 0.244 0.961 0.130
vn 0.121 0.967 -0.226
vn 0.773 0.000 -0.634
vn 0.560 -0.690 -0.459
vn 0.736 -0.673 0.072
vn 0.995 0.000 -0.098
vn 0.736 0.673 0.072
vn 0.268 0.960 0.081
vn 0.000 0.000 -0.000
vn 0.268 0.960 0.081
vn 0.167 0.965 -0.204
vn 0.882 0.000 -0.471
vn 0.645 -0.682 -0.345
vn 0.736 -0.673 -0.072
vn 0.957 0.000 -0.290
vn 0.736 0.673 -0.072
vn 0.281 0.959 0.028
vn 0.000 0.000 -0.000
vn 0.281 0.959 0.028
vn 0.209 0.963 -0.172
vn 0.000 0.000 0.000
vn 0.705 -0.676 -0.214
vn 0.705 0.676 -0.214
vn 0.281 0.959 -0.028
vn 0.244 0.961 -0.130
vn 0.000 0.000 0.000
vn 0.268 0.960 -0.081

# Facets
f 1//1 2//1 3//1
f 2//2 4//2 3//2
f 5//3 6//3 7//3
f 8//4 2//4 1//4
f 9//5 7//5 10//5
f 11//6 12//6 13//6
f 15//8 16//8 17//8
f 18//9 11//9 13//9
f 19//10 17//10 20//10
f 21//11 18//11 22//11
f 23//12 20//12 24//12
f 25//13 21//13 26//13
f 27//14 24//14 28//14
f 29//15 25//15 30//15
f 31//16 32//16 33//16
f 33//18 36//18 37//18
f 38//19 39//19 34//19
f 37//20 39//20 38//20
f 1//21 3//21 5//21
f 12//22 1//22 9//22
f 12//23 40//23 14//23
f 42//25 35//25 41//25
f 38//26 43//26 44//26
f 37//28 44//28 45//28
f 31//29 33//29 45//29
f 27//30 31//30 46//30
f 31//31 47//31 46//31
f 23//32 27//32 46//32
f 19//33 23//33 48//33
f 15//34 19//34 49//34
f 9//35 5//35 7//35
f 12//36 8//36 1//36
f 40//37 9//37 10//37
f 11//39 8//39 12//39
f 14//40 40//40 10//40
f 10//41 50//41 14//41
f 19//42 15//42 17//42
f 22//43 18//43 13//43
f 23//44 19//44 20//44
f 26//45 21//45 22//45
f 27//46 23//46 24//46
f 26//47 30//47 25//47
f 31//49 27//49 28//49
f 30//50 35//50 29//50
f 31//52 28//52 32//52
f 35//54 42//54 34//54
f 34//55 29//55 35//55
f 33//56 32//56 36//56
f 42//58 38//58 34//58
f 37//59 36//59 39//59
f 9//61 1//61 5//61
f 40//62 12//62 9//62
f 13//63 12//63 14//63
f 13//64 14//64 22//64
f 14//68 51//68 22//68
f 51//70 52//70 22//70
f 52//72 26//72 22//72
f 52//74 53//74 26//74
f 53//76 30//76 26//76
f 53//77 41//77 30//77
f 41//79 35//79 30//79
f 54//80 42//80 41//80
f 54//82 43//82 42//82
f 43//83 38//83 42//83
f 44//86 37//86 38//86
f 45//88 33//88 37//88
f 47//89 31//89 45//89
f 48//90 23//90 46//90
f 49//91 19//91 48//91
f 55//92 15//92 49//92
f 56//93 57//93 58//93
f 4//94 2//94 56//94
f 59//95 60//95 57//95
f 6//96 58//96 57//96
f 2//97 8//97 59//97
f 61//98 62//98 60//98
f 7//99 57//99 60//99
f 8//100 11//100 61//100
f 63//101 64//101 62//101
f 10//102 60//102 62//102
f 65//103 66//103 67//103
f 16//104 65//104 68//104
f 11//105 18//105 63//105
f 69//106 70//106 64//106
f 64//107 71//107 50//107
f 67//108 66//108 72//108
f 67//109 73//109 74//109
f 17//110 68//110 74//110
f 18//111 21//111 69//111
f 75//112 76//112 70//112
f 70//113 77//113 71//113
f 14//114 50//114 71//114
f 73//115 67//115 78//115
f 78//116 72//116 55//116
f 74//117 73//117 79//117
f 20//118 74//118 80//118
f 21//119 25//119 75//119
f 81//120 82//120 76//120
f 76//121 83//121 77//121
f 84//122 79//122 85//122
f 79//123 73//123 85//123
f 85//124 78//124 49//124
f 80//125 79//125 86//125
f 24//126 80//126 87//126
f 25//127 29//127 81//127
f 88//128 82//128 81//128
f 82//129 89//129 83//129
f 90//130 86//130 84//130
f 86//131 79//131 84//131
f 84//132 85//132 48//132
f 87//133 86//133 91//133
f 28//134 87//134 92//134
f 29//135 34//135 93//135
f 94//136 95//136 88//136
f 88//137 96//137 89//137
f 97//138 91//138 90//138
f 91//139 86//139 90//139
f 90//140 84//140 46//140
f 92//141 91//141 98//141
f 32//142 92//142 99//142
f 39//143 94//143 93//143
f 99//144 98//144 95//144
f 88//145 95//145 100//145
f 101//146 98//146 97//146
f 98//147 91//147 97//147
f 97//148 47//148 45//148
f 36//149 99//149 94//149
f 95//150 98//150 101//150
f 96//151 100//151 43//151
f 101//152 45//152 44//152
f 100//153 101//153 44//153
f 102//154 56//154 58//154
f 102//155 4//155 56//155
f 56//156 59//156 57//156
f 7//157 6//157 57//157
f 56//158 2//158 59//158
f 59//159 61//159 60//159
f 10//160 7//160 60//160
f 59//161 8//161 61//161
f 61//162 63//162 62//162
f 50//163 10//163 62//163
f 68//164 65//164 67//164
f 17//165 16//165 68//165
f 61//166 11//166 63//166
f 63//167 69//167 64//167
f 62//168 64//168 50//168
f 78//169 67//169 72//169
f 68//170 67//170 74//170
f 20//171 17//171 74//171
f 63//172 18//172 69//172
f 69//173 75//173 70//173
f 64//174 70//174 71//174
f 51//175 14//175 71//175
f 85//176 73//176 78//176
f 49//177 78//177 55//177
f 80//178 74//178 79//178
f 24//179 20//179 80//179
f 69//180 21//180 75//180
f 75//181 81//181 76//181
f 70//182 76//182 77//182
f 52//183 51//183 77//183
f 51//185 71//185 77//185
f 48//186 85//186 49//186
f 87//187 80//187 86//187
f 28//188 24//188 87//188
f 75//189 25//189 81//189
f 93//190 88//190 81//190
f 76//191 82//191 83//191
f 53//192 52//192 83//192
f 52//194 77//194 83//194
f 46//195 84//195 48//195
f 92//196 87//196 91//196
f 32//197 28//197 92//197
f 81//198 29//198 93//198
f 93//199 94//199 88//199
f 82//200 88//200 89//200
f 41//201 53//201 89//201
f 53//203 83//203 89//203
f 47//204 90//204 46//204
f 99//205 92//205 98//205
f 36//206 32//206 99//206
f 34//207 39//207 93//207
f 94//208 99//208 95//208
f 96//209 88//209 100//209
f 54//210 41//210 96//210
f 41//212 89//212 96//212
f 97//213 90//213 47//213
f 39//215 36//215 94//215
f 100//216 95//216 101//216
f 54//217 96//217 43//217
f 101//218 97//218 45//218
f 43//220 100//220 44//220

# Thank you for using Spin 3D

