# Created using Spin 3D

# Vertex Array 
v 0.035 0.062 -0.003
v 0.039 -0.001 -0.002
v 0.031 0.000 -0.008
v 0.003 0.003 0.008
v 0.003 -0.004 -0.001
v 0.008 -0.005 0.010
v 0.003 0.060 0.008
v -0.001 0.052 0.003
v 0.030 -0.009 -0.003
v 0.039 -0.001 0.002
v -0.001 0.017 -0.004
v -0.002 0.021 0.003
v 0.035 0.008 0.008
v 0.028 -0.003 0.012
v -0.002 0.058 -0.004
v 0.012 0.073 0.004
v 0.012 0.075 -0.001
v 0.010 -0.002 0.012
v 0.010 0.050 0.012
v 0.008 0.001 -0.005
v 0.035 0.061 0.008
v 0.026 0.073 0.004
v 0.028 0.050 0.012
v 0.012 0.072 -0.005
v 0.026 0.073 -0.005
v 0.025 -0.002 -0.008
v 0.026 0.075 -0.001

# Normal Array
vn 0.616 0.016 -0.788
vn -0.827 -0.456 0.328
vn -0.751 -0.001 0.660
vn 0.506 -0.446 -0.739
vn 0.709 -0.705 -0.019
vn -0.968 -0.207 0.140
vn -0.968 -0.207 0.143
vn -0.753 -0.001 0.658
vn 0.697 -0.205 0.687
vn -1.000 -0.000 -0.011
vn -0.721 0.609 0.331
vn -0.494 0.001 0.870
vn -0.593 -0.218 0.775
vn -0.063 -0.605 0.794
vn -0.495 0.001 0.869
vn 0.000 0.000 1.000
vn -0.205 -0.979 -0.011
vn -0.488 -0.209 -0.848
vn -1.000 0.003 0.006
vn 0.053 0.321 0.945
vn -0.800 0.572 0.180
vn 0.542 -0.748 0.384
vn 0.003 0.319 0.948
vn -0.915 0.286 0.284
vn -0.662 0.585 -0.468
vn 0.000 0.043 -0.999
vn 0.998 0.058 0.000
vn 0.998 0.058 0.007
vn 0.485 -0.000 0.875
vn -0.225 -0.494 -0.840
vn -0.174 -0.683 -0.710
vn 0.010 -0.931 0.365
vn -0.001 0.317 0.948
vn -0.096 0.320 0.942
vn -0.163 -0.000 -0.987
vn 0.733 0.549 -0.402
vn 0.497 0.002 0.868
vn -0.029 0.780 -0.625
vn 0.846 0.533 0.024
vn 0.866 0.002 0.501
vn -0.164 -0.000 -0.986
vn -0.115 0.022 -0.993
vn 0.003 0.044 -0.999
vn 0.242 -0.486 -0.840
vn -0.038 0.867 0.498
vn 0.772 0.600 0.209
vn 0.018 0.936 0.351
vn 0.008 0.840 -0.543
vn 0.223 0.057 -0.973
vn 0.002 0.001 1.000

# Facets
f 1//1 2//1 3//1
f 4//2 5//2 6//2
f 7//3 8//3 4//3
f 2//4 9//4 3//4
f 9//5 2//5 10//5
f 11//6 5//6 12//6
f 12//7 5//7 4//7
f 8//8 12//8 4//8
f 10//9 13//9 14//9
f 15//10 11//10 12//10
f 16//11 17//11 7//11
f 4//12 18//12 7//12
f 6//13 18//13 4//13
f 14//14 18//14 6//14
f 7//15 18//15 19//15
f 18//16 14//16 19//16
f 5//17 9//17 6//17
f 20//18 5//18 11//18
f 8//19 15//19 12//19
f 21//20 22//20 23//20
f 17//21 15//21 7//21
f 14//22 9//22 10//22
f 23//23 22//23 16//23
f 7//24 15//24 8//24
f 17//25 24//25 15//25
f 24//26 25//26 3//26
f 1//27 10//27 2//27
f 21//28 10//28 1//28
f 13//29 23//29 14//29
f 20//30 26//30 5//30
f 5//31 26//31 9//31
f 9//32 14//32 6//32
f 16//33 19//33 23//33
f 16//34 7//34 19//34
f 20//35 11//35 15//35
f 25//36 27//36 1//36
f 21//37 23//37 13//37
f 24//38 17//38 25//38
f 27//39 21//39 1//39
f 10//40 21//40 13//40
f 15//41 26//41 20//41
f 26//42 15//42 24//42
f 26//43 24//43 3//43
f 9//44 26//44 3//44
f 16//45 22//45 17//45
f 27//46 22//46 21//46
f 22//47 27//47 17//47
f 27//48 25//48 17//48
f 1//49 3//49 25//49
f 23//50 19//50 14//50

# Thank you for using Spin 3D

