# Created using Spin 3D

# Vertex Array 
v -0.018 -0.000 -0.016
v -0.014 -0.048 0.025
v -0.018 -0.000 0.016
v -0.018 -0.000 0.016
v -0.018 -0.000 -0.016
v -0.014 -0.029 -0.030
v -0.014 -0.015 -0.030
v -0.014 -0.048 -0.027
v 0.018 -0.048 -0.027
v 0.018 -0.047 -0.028
v -0.014 -0.029 0.030
v 0.018 -0.015 -0.030
v 0.018 -0.015 0.030
v 0.018 -0.000 0.016
v 0.018 -0.000 -0.016
v -0.014 -0.015 0.030
v 0.018 -0.047 0.025
v 0.018 -0.048 0.024
v -0.014 -0.047 -0.028
v 0.018 -0.029 0.030

# Normal Array
vn -0.996 -0.094 0.000
vn -0.532 0.847 -0.000
vn -0.948 0.009 -0.317
vn -0.996 -0.094 0.000
vn 0.002 -0.768 -0.641
vn -0.978 -0.054 0.201
vn 1.000 -0.001 0.000
vn 1.000 0.025 0.000
vn -0.949 0.008 0.315
vn 0.000 1.000 0.000
vn 1.000 -0.001 0.000
vn 0.002 -0.087 -0.996
vn -0.000 0.018 1.000
vn -0.648 0.404 0.646
vn 0.003 0.665 -0.747
vn 1.000 -0.000 -0.000
vn -0.001 0.664 0.747
vn -0.646 0.406 -0.647
vn -0.004 -0.673 -0.740
vn 0.008 -0.781 0.625
vn -0.994 -0.074 -0.081
vn 0.024 -0.049 -0.999
vn -0.008 -1.000 0.004
vn 1.000 -0.000 -0.000
vn 0.001 1.000 -0.000
vn -0.004 0.019 -1.000
vn -0.006 -0.259 0.966
vn -0.000 -0.248 0.969
vn 1.000 0.024 0.000
vn -0.000 0.017 1.000
vn -0.001 0.670 -0.743
vn 0.003 0.670 0.742
vn -0.966 -0.023 -0.259
vn -0.001 -1.000 -0.000
vn 1.000 -0.001 0.004
vn -0.531 0.847 -0.000

# Facets
f 1//1 2//1 3//1
f 4//2 5//2 3//2
f 6//3 1//3 7//3
f 8//4 2//4 1//4
f 9//5 8//5 10//5
f 2//6 11//6 3//6
f 10//7 12//7 13//7
f 14//8 12//8 15//8
f 16//9 3//9 11//9
f 5//10 4//10 14//10
f 17//11 18//11 13//11
f 19//12 6//12 10//12
f 11//13 13//13 16//13
f 16//14 4//14 3//14
f 7//15 5//15 15//15
f 10//16 13//16 9//16
f 13//17 4//17 16//17
f 1//18 5//18 7//18
f 19//19 10//19 8//19
f 18//20 17//20 2//20
f 1//21 19//21 8//21
f 10//22 6//22 12//22
f 18//23 2//23 8//23
f 13//24 18//24 9//24
f 15//25 5//25 14//25
f 6//26 7//26 12//26
f 2//27 17//27 11//27
f 20//28 11//28 17//28
f 13//29 12//29 14//29
f 20//30 13//30 11//30
f 7//31 15//31 12//31
f 4//32 13//32 14//32
f 6//33 19//33 1//33
f 8//34 9//34 18//34
f 20//35 17//35 13//35
f 3//36 5//36 1//36

# Thank you for using Spin 3D

