# Created using Spin 3D

# Vertex Array 
v 0.036 0.011 0.018
v -0.002 0.011 0.018
v 0.033 -0.004 0.004
v -0.003 0.009 0.014
v 0.003 -0.004 0.004
v 0.036 0.016 0.011
v 0.036 0.009 0.015
v 0.034 -0.000 -0.001
v 0.036 0.033 0.011
v 0.003 -0.002 -0.004
v 0.003 -0.004 -0.002
v -0.003 0.016 0.011
v -0.002 0.011 0.018
v 0.036 0.011 0.018
v 0.002 0.037 0.009
v 0.003 0.020 -0.004
v -0.000 0.038 0.011
v 0.033 0.020 -0.004
v 0.033 -0.002 -0.004
v 0.033 -0.004 -0.002
v -0.003 0.037 0.018
v -0.003 0.033 0.011
v 0.031 0.037 0.009
v 0.033 0.038 0.011
v 0.002 0.039 0.017
v 0.032 0.039 0.018
v 0.036 0.036 0.018

# Normal Array
vn 0.000 -0.669 0.743
vn -0.576 -0.643 0.505
vn 0.991 -0.052 -0.123
vn 0.982 -0.000 -0.191
vn -0.964 -0.140 -0.225
vn -0.963 -0.088 -0.255
vn -0.001 -0.458 0.889
vn -0.430 -0.743 0.513
vn 0.000 -0.326 0.945
vn -0.003 -0.674 0.739
vn -0.328 0.571 -0.753
vn -0.913 -0.409 0.004
vn 0.527 -0.674 0.518
vn 0.647 -0.576 0.500
vn 0.957 -0.289 0.029
vn 0.969 0.022 -0.248
vn 0.919 -0.003 -0.394
vn 0.001 -1.000 0.008
vn -0.001 -1.000 -0.005
vn 0.000 -0.000 -1.000
vn 0.000 -0.000 -1.000
vn -0.993 -0.014 0.120
vn -1.000 -0.000 -0.020
vn -1.000 0.002 0.004
vn -0.938 0.000 -0.346
vn -0.938 -0.001 -0.346
vn 0.223 0.617 -0.755
vn 0.000 0.618 -0.786
vn -0.000 0.843 -0.539
vn -0.000 0.983 -0.185
vn -0.729 0.360 -0.582
vn -0.434 0.901 -0.006
vn -0.021 0.288 0.957
vn 0.062 0.007 0.998
vn 1.000 -0.000 0.002
vn 1.000 0.005 -0.014
vn 0.985 -0.014 0.175
vn 0.008 -0.758 -0.652
vn 0.932 -0.264 -0.247
vn 0.944 -0.330 -0.001
vn -0.853 0.464 -0.237
vn -0.000 0.983 -0.185
vn -0.001 0.840 -0.542
vn 0.001 0.619 -0.785
vn -0.011 -0.592 -0.806
vn 0.000 -0.001 1.000
vn 0.759 0.397 -0.515
vn -0.000 -0.001 1.000
vn 0.846 0.475 -0.241
vn 0.592 0.804 -0.046

# Facets
f 1//1 2//1 3//1
f 2//2 4//2 5//2
f 6//3 7//3 8//3
f 9//4 6//4 8//4
f 4//5 10//5 11//5
f 12//6 10//6 4//6
f 1//7 13//7 2//7
f 2//8 13//8 4//8
f 13//9 1//9 14//9
f 2//10 5//10 3//10
f 15//11 16//11 17//11
f 11//12 5//12 4//12
f 1//13 7//13 14//13
f 3//14 7//14 1//14
f 8//15 7//15 3//15
f 8//16 18//16 9//16
f 18//17 8//17 19//17
f 20//18 3//18 5//18
f 20//19 5//19 11//19
f 18//20 19//20 16//20
f 19//21 10//21 16//21
f 21//22 4//22 13//22
f 4//23 22//23 12//23
f 21//24 22//24 4//24
f 22//25 16//25 12//25
f 16//26 10//26 12//26
f 23//27 24//27 18//27
f 15//28 18//28 16//28
f 15//29 17//29 23//29
f 17//30 25//30 26//30
f 17//31 16//31 22//31
f 21//32 25//32 17//32
f 26//33 25//33 21//33
f 27//34 26//34 14//34
f 9//35 27//35 6//35
f 27//36 7//36 6//36
f 27//37 14//37 7//37
f 19//38 20//38 11//38
f 19//39 8//39 20//39
f 20//40 8//40 3//40
f 17//41 22//41 21//41
f 24//42 17//42 26//42
f 17//43 24//43 23//43
f 15//44 23//44 18//44
f 19//45 11//45 10//45
f 13//46 14//46 26//46
f 24//47 9//47 18//47
f 26//48 21//48 13//48
f 24//49 27//49 9//49
f 27//50 24//50 26//50

# Thank you for using Spin 3D

