# Created using Spin 3D

# Vertex Array 
v -0.001 0.017 0.003
v 0.007 -0.003 0.008
v -0.001 0.058 0.004
v 0.029 -0.005 -0.011
v 0.028 0.050 -0.012
v 0.035 0.004 -0.008
v 0.015 -0.006 0.005
v 0.033 -0.004 0.004
v 0.008 -0.005 -0.008
v 0.003 0.007 -0.008
v -0.001 0.054 -0.003
v 0.003 0.060 -0.008
v -0.001 0.022 -0.003
v 0.039 -0.001 0.002
v 0.039 -0.001 -0.002
v 0.035 0.061 -0.008
v 0.035 0.058 0.004
v 0.026 0.071 0.005
v 0.035 0.013 0.004
v 0.010 0.050 -0.012
v 0.010 -0.002 -0.012
v 0.013 0.077 -0.003
v 0.011 0.070 0.005
v 0.014 -0.001 0.008
v 0.027 0.074 0.003
v 0.003 -0.002 0.000
v 0.027 0.074 -0.004

# Normal Array
vn -0.486 -0.006 0.874
vn 0.496 -0.001 -0.869
vn 0.160 -0.987 0.016
vn 0.029 -0.995 -0.091
vn -0.744 -0.001 -0.668
vn -0.748 -0.002 -0.664
vn 0.429 -0.900 -0.073
vn 0.998 0.058 0.008
vn 0.171 0.017 0.985
vn -0.497 0.000 -0.868
vn -0.495 -0.000 -0.869
vn 0.862 -0.000 -0.507
vn -0.803 0.554 -0.222
vn -0.656 0.657 0.373
vn -1.000 0.001 0.000
vn -0.331 -0.935 0.126
vn -0.672 -0.208 -0.711
vn 0.003 0.042 0.999
vn -0.121 0.803 0.584
vn 0.396 -0.917 -0.044
vn 0.726 -0.285 -0.626
vn 0.006 0.042 0.999
vn -0.150 0.050 0.987
vn 0.877 0.456 0.151
vn 0.997 0.063 0.041
vn 0.607 0.014 0.794
vn 0.354 -0.082 0.932
vn 0.030 0.000 -1.000
vn -0.872 0.408 -0.271
vn -0.432 -0.894 0.119
vn 0.694 0.373 0.615
vn 0.855 0.514 0.068
vn 0.505 0.001 -0.863
vn -1.000 0.001 -0.002
vn -0.081 -0.659 -0.748
vn -0.939 -0.198 -0.282
vn -0.878 -0.288 -0.382
vn -0.968 -0.189 -0.166
vn 0.160 0.985 0.064
vn 0.059 0.320 -0.946
vn 0.137 -0.447 0.884
vn 0.177 -0.434 0.883
vn 0.207 -0.071 0.976
vn 0.154 0.014 0.988
vn -0.003 0.318 -0.948
vn -0.004 0.318 -0.948
vn -0.846 -0.267 0.461
vn -0.088 0.324 -0.942
vn -0.029 0.533 0.845
vn 0.000 -0.010 -1.000

# Facets
f 1//1 2//1 3//1
f 4//2 5//2 6//2
f 7//3 4//3 8//3
f 7//4 9//4 4//4
f 10//5 11//5 12//5
f 10//6 13//6 11//6
f 8//7 4//7 14//7
f 15//8 16//8 14//8
f 17//9 18//9 19//9
f 20//10 10//10 12//10
f 20//11 21//11 10//11
f 15//12 6//12 16//12
f 3//13 22//13 12//13
f 23//14 22//14 3//14
f 3//15 13//15 1//15
f 2//16 9//16 7//16
f 9//17 10//17 21//17
f 23//18 24//18 18//18
f 23//19 25//19 22//19
f 15//20 14//20 4//20
f 15//21 4//21 6//21
f 24//22 23//22 2//22
f 2//23 23//23 3//23
f 17//24 16//24 25//24
f 14//25 16//25 17//25
f 14//26 17//26 19//26
f 14//27 19//27 8//27
f 4//28 21//28 20//28
f 11//29 3//29 12//29
f 2//30 26//30 9//30
f 17//31 25//31 18//31
f 16//32 27//32 25//32
f 16//33 6//33 5//33
f 13//34 3//34 11//34
f 21//35 4//35 9//35
f 26//36 13//36 10//36
f 10//37 9//37 26//37
f 1//38 13//38 26//38
f 22//39 25//39 27//39
f 5//40 27//40 16//40
f 8//41 24//41 7//41
f 24//42 2//42 7//42
f 8//43 19//43 24//43
f 24//44 19//44 18//44
f 27//45 5//45 22//45
f 22//46 5//46 20//46
f 26//47 2//47 1//47
f 22//48 20//48 12//48
f 25//49 23//49 18//49
f 4//50 20//50 5//50

# Thank you for using Spin 3D

