# Created using Spin 3D

# Vertex Array 
v -0.115 -0.099 0.068
v -0.115 -0.099 -0.068
v -0.115 -0.108 -0.068
v -0.115 -0.052 -0.035
v -0.069 -0.039 -0.021
v -0.105 -0.052 -0.048
v 0.038 -0.107 0.069
v -0.115 -0.108 0.068
v 0.011 -0.053 0.064
v -0.064 -0.040 0.029
v -0.047 -0.051 0.061
v 0.034 -0.052 -0.022
v 0.035 -0.052 0.013
v -0.115 -0.052 0.036
v 0.038 -0.107 -0.069
v 0.024 -0.052 -0.058
v -0.103 -0.052 0.050
v 0.025 -0.052 0.057
v -0.090 -0.042 -0.000
v 0.008 -0.052 -0.064
v -0.070 -0.052 -0.058
v -0.052 -0.045 -0.048
v 0.038 -0.594 0.068
v 0.038 -0.593 -0.067
v 0.038 -0.108 0.068
v 0.038 -0.108 -0.067
v -0.115 -0.594 0.068
v -0.115 -0.593 -0.067
v -0.115 -0.108 0.068
v -0.115 -0.108 -0.067

# Normal Array
vn -1.000 0.006 0.000
vn -0.226 0.963 -0.144
vn 0.005 -1.000 -0.000
vn 0.012 0.945 0.328
vn 0.124 0.992 0.003
vn -1.000 0.012 0.000
vn 0.929 0.281 -0.241
vn -1.000 -0.000 0.001
vn -0.677 0.419 0.605
vn 0.373 0.276 0.886
vn -0.237 0.965 -0.110
vn -0.032 0.860 -0.509
vn -0.249 0.425 -0.870
vn -0.005 -0.026 1.000
vn 0.123 0.992 0.001
vn -0.038 0.204 0.978
vn 0.003 -1.000 0.003
vn -0.007 -0.041 -0.999
vn -0.186 0.403 0.896
vn 0.001 0.098 -0.995
vn -0.112 0.910 -0.400
vn -0.107 0.994 0.024
vn -0.214 0.969 0.121
vn 0.002 0.097 0.995
vn 0.067 0.984 -0.167
vn 0.998 0.058 -0.000
vn 0.052 0.967 0.250
vn 0.059 0.974 -0.220
vn -0.377 0.926 -0.000
vn -0.204 0.962 0.181
vn 0.123 0.992 -0.030
vn 0.993 0.112 -0.037
vn -0.087 0.924 0.373
vn 0.128 0.992 0.024
vn -0.739 0.392 -0.548
vn 0.938 0.272 0.214
vn -0.065 0.270 -0.961
vn -1.000 0.005 0.003
vn 0.306 0.256 -0.917
vn -0.119 0.952 -0.281
vn 1.000 -0.001 -0.004
vn 1.000 -0.001 -0.002
vn 0.002 0.000 1.000
vn 0.000 -1.000 -0.000
vn 0.004 -1.000 -0.005
vn -1.000 0.000 -0.000
vn -0.000 -0.000 -1.000
vn 0.000 1.000 -0.002
vn 0.000 0.000 -1.000
vn 0.002 0.000 1.000
vn 0.001 1.000 0.000
vn -1.000 0.000 -0.000

# Facets
f 1//1 2//1 3//1
f 4//2 5//2 6//2
f 7//3 8//3 3//3
f 9//4 10//4 11//4
f 12//5 10//5 13//5
f 2//6 1//6 14//6
f 15//7 16//7 12//7
f 1//8 3//8 8//8
f 14//9 1//9 17//9
f 18//10 9//10 7//10
f 19//11 5//11 4//11
f 20//12 21//12 22//12
f 2//13 6//13 21//13
f 1//14 8//14 7//14
f 12//15 5//15 10//15
f 1//16 9//16 11//16
f 15//17 7//17 3//17
f 15//18 3//18 2//18
f 17//19 1//19 11//19
f 2//20 20//20 15//20
f 22//21 21//21 6//21
f 5//22 19//22 10//22
f 14//23 10//23 19//23
f 9//24 1//24 7//24
f 16//25 22//25 5//25
f 7//26 15//26 13//26
f 9//27 18//27 10//27
f 22//28 16//28 20//28
f 19//29 4//29 14//29
f 17//30 10//30 14//30
f 5//31 12//31 16//31
f 13//32 15//32 12//32
f 11//33 10//33 17//33
f 18//34 13//34 10//34
f 2//35 4//35 6//35
f 7//36 13//36 18//36
f 2//37 21//37 20//37
f 4//38 2//38 14//38
f 15//39 20//39 16//39
f 6//40 5//40 22//40
f 23//41 24//41 25//41
f 24//42 26//42 25//42
f 27//43 23//43 25//43
f 28//44 23//44 27//44
f 23//45 28//45 24//45
f 27//46 29//46 28//46
f 24//47 28//47 30//47
f 29//48 25//48 26//48
f 30//49 26//49 24//49
f 29//50 27//50 25//50
f 30//51 29//51 26//51
f 30//52 28//52 29//52

# Thank you for using Spin 3D

