# Created using Spin 3D

# Vertex Array 
v 0.101 0.003 -0.012
v -0.066 0.003 -0.007
v 0.110 0.003 -0.007
v 0.108 0.003 0.009
v 0.022 -0.014 -0.030
v -0.057 0.003 -0.012
v 0.022 -0.020 -0.027
v 0.101 -0.033 -0.012
v -0.057 -0.033 -0.012
v -0.068 -0.010 0.003
v -0.062 0.003 0.011
v -0.066 -0.033 -0.008
v 0.112 0.003 0.002
v 0.113 -0.033 -0.001
v 0.107 -0.033 -0.010
v -0.056 0.003 0.013
v 0.100 -0.033 0.013
v 0.100 0.003 0.013
v -0.056 -0.033 0.013
v 0.107 -0.033 0.011
v 0.104 0.003 0.012
v -0.062 -0.033 0.011

# Normal Array
vn -0.000 1.000 0.009
vn -0.000 1.000 0.000
vn 0.000 0.709 -0.705
vn 0.000 -0.746 -0.666
vn -0.921 0.331 0.204
vn -0.509 0.021 -0.860
vn 0.009 1.000 0.001
vn 0.854 -0.030 -0.519
vn -0.104 -0.404 -0.909
vn 0.104 -0.404 -0.909
vn -0.000 1.000 -0.000
vn 0.000 0.000 1.000
vn 0.000 0.000 1.000
vn -0.000 1.000 0.000
vn 0.334 -0.001 -0.943
vn 0.216 -0.000 -0.976
vn 0.521 0.032 -0.853
vn -0.973 0.006 -0.230
vn -0.441 -0.000 -0.897
vn -0.216 -0.000 -0.976
vn 0.976 0.029 -0.215
vn -0.208 0.000 0.978
vn 0.842 -0.001 0.540
vn 0.250 0.000 0.968
vn -0.000 1.000 0.000
vn 0.000 1.000 0.000
vn -0.000 1.000 -0.000
vn 0.167 -0.018 0.986
vn 0.511 0.018 0.859
vn -0.277 -0.012 0.961
vn -0.000 -1.000 0.000
vn -0.000 -1.000 -0.000
vn 0.000 -1.000 0.000
vn -0.964 -0.192 0.182
vn -0.000 -1.000 0.000
vn -0.011 -1.000 -0.003
vn -0.000 -1.000 -0.000
vn -0.000 -1.000 0.000
vn -0.780 0.001 0.626
vn 0.899 -0.032 0.437

# Facets
f 1//1 2//1 3//1
f 3//2 2//2 4//2
f 1//3 5//3 6//3
f 7//4 8//4 9//4
f 2//5 10//5 11//5
f 12//6 2//6 6//6
f 4//7 13//7 3//7
f 3//8 14//8 15//8
f 9//9 5//9 7//9
f 7//10 5//10 8//10
f 6//11 2//11 1//11
f 16//12 17//12 18//12
f 16//13 19//13 17//13
f 2//14 11//14 4//14
f 15//15 8//15 1//15
f 1//16 8//16 5//16
f 3//17 15//17 1//17
f 12//18 10//18 2//18
f 12//19 6//19 9//19
f 9//20 6//20 5//20
f 13//21 14//21 3//21
f 19//22 16//22 11//22
f 4//23 20//23 13//23
f 18//24 17//24 20//24
f 11//25 21//25 4//25
f 16//26 18//26 21//26
f 11//27 16//27 21//27
f 20//28 21//28 18//28
f 20//29 4//29 21//29
f 19//30 11//30 22//30
f 17//31 19//31 22//31
f 14//32 22//32 15//32
f 22//33 8//33 15//33
f 10//34 12//34 22//34
f 9//35 8//35 22//35
f 9//36 22//36 12//36
f 14//37 20//37 22//37
f 20//38 17//38 22//38
f 10//39 22//39 11//39
f 14//40 13//40 20//40

# Thank you for using Spin 3D

