# Blender v2.92.0 OBJ File: ''
# www.blender.org
mtllib combinedHeadCollision.mtl
o head_collision
v -0.118000 0.091000 0.089000
v -0.114000 0.091000 -0.089000
v -0.066000 0.091000 -0.100000
v -0.099000 0.211000 0.100000
v -0.103000 0.216000 -0.099000
v -0.103000 0.216000 0.099000
v -0.066000 0.091000 0.100000
v -0.131000 0.228000 -0.084000
v -0.115000 0.224000 -0.093000
v -0.150000 0.217000 -0.085000
v -0.056000 0.091000 0.100000
v -0.089000 0.211000 0.100000
v -0.113000 0.215000 -0.098000
v -0.126000 0.210000 -0.093000
v -0.150000 0.217000 0.085000
v -0.125000 0.209000 0.093000
v -0.113000 0.214000 0.098000
v -0.080000 0.091000 -0.098000
v -0.111000 0.227000 -0.083000
v -0.099000 0.211000 -0.100000
v -0.089000 0.211000 -0.100000
v -0.056000 0.091000 -0.100000
v -0.111000 0.228000 0.081000
v -0.105000 0.229000 0.044000
v -0.132000 0.228000 0.044000
v -0.131000 0.228000 0.081000
v -0.080000 0.091000 0.098000
v -0.115000 0.225000 0.091000
v -0.114000 0.221000 0.095000
v -0.132000 0.228000 -0.044000
v -0.105000 0.229000 -0.044000
v 0.008000 0.103000 -0.104000
v 0.022000 0.102000 -0.101000
v 0.006000 0.061000 -0.108000
v -0.086000 0.039000 -0.099000
v -0.014000 -0.022000 -0.081000
v -0.094000 0.035000 -0.099000
v -0.094000 0.037000 0.098000
v 0.009000 -0.025000 -0.081000
v 0.005000 -0.026000 0.081000
v 0.000000 -0.026000 -0.080000
v 0.036000 0.007000 -0.056000
v 0.029000 -0.002000 0.053000
v 0.025000 -0.012000 -0.051000
v -0.007000 -0.025000 -0.080000
v -0.001000 0.027000 -0.103000
v 0.027000 0.023000 -0.095000
v -0.015000 -0.021000 0.082000
v -0.062000 0.090000 0.104000
v -0.032000 0.063000 0.106000
v -0.025000 0.103000 0.106000
v 0.015000 -0.022000 -0.081000
v 0.021000 -0.014000 -0.084000
v -0.069000 0.058000 -0.105000
v -0.065000 0.103000 -0.105000
v -0.027000 0.059000 -0.110000
v 0.026000 0.001000 -0.088000
v -0.006000 -0.026000 0.081000
v -0.015000 0.029000 0.104000
v 0.018000 -0.019000 0.083000
v 0.013000 -0.023000 0.081000
v 0.039000 0.026000 0.044000
v 0.044000 0.033000 -0.013000
v -0.025000 0.090000 -0.106000
v -0.105000 0.061000 0.099000
v -0.108000 0.073000 -0.101000
v -0.103000 0.054000 -0.101000
v -0.098000 0.103000 0.099000
v 0.036000 0.083000 -0.100000
v 0.030000 0.046000 -0.098000
v 0.006000 0.055000 0.106000
v 0.032000 0.081000 0.100000
v 0.024000 0.102000 0.100000
v -0.110000 0.086000 0.100000
v -0.069000 0.068000 0.108000
v -0.101000 0.090000 0.099000
v -0.110000 0.088000 -0.101000
v -0.040000 0.030000 -0.103000
v 0.013000 0.103000 0.102000
v 0.017000 0.103000 -0.101000
v 0.026000 0.001000 0.094000
v 0.008000 0.024000 0.100000
v 0.022000 -0.013000 0.085000
v 0.005000 0.090000 0.105000
v 0.031000 0.064000 0.100000
v 0.030000 0.034000 0.099000
v -0.055000 0.033000 0.102000
v 0.034000 0.063000 -0.098000
v -0.098000 0.091000 -0.100000
v -0.105000 0.249000 0.043000
v -0.105000 0.249000 -0.044000
v -0.132000 0.250000 -0.044000
v -0.132000 0.250000 0.044000
vn 0.0000 -1.0000 -0.0000
vn -0.0000 -1.0000 0.0007
vn -0.0000 -1.0000 0.0005
vn 0.7820 0.6232 0.0000
vn 0.7821 0.6232 0.0000
vn 0.7825 0.6226 -0.0000
vn -0.2898 0.5337 -0.7945
vn 0.0000 -0.0000 1.0000
vn -0.3371 -0.0190 -0.9413
vn -0.3330 -0.1050 0.9371
vn -0.0000 -1.0000 0.0010
vn 0.0540 0.9218 -0.3839
vn 0.0000 0.0000 -1.0000
vn -0.0300 0.9988 0.0390
vn 0.0390 0.9992 -0.0000
vn -0.3521 -0.0570 0.9342
vn -0.2710 -0.0710 -0.9600
vn -0.2840 0.4220 -0.8610
vn -0.1200 -0.0320 0.9923
vn -0.2439 -0.0640 0.9677
vn -0.1310 -0.0350 -0.9908
vn -0.9612 -0.2750 -0.0220
vn 0.3891 0.8492 0.3571
vn -0.1680 0.3069 0.9368
vn 0.2841 0.8471 -0.4491
vn 0.2840 0.8471 -0.4491
vn -0.2959 0.2719 0.9157
vn -0.9690 -0.2470 -0.0000
vn -0.0290 0.9996 0.0010
vn 0.0500 0.9974 -0.0510
vn -0.1150 0.0280 -0.9930
vn 0.7806 0.6251 0.0000
vn -0.2741 0.6963 0.6633
vn -0.2740 0.6966 0.6631
vn -0.5277 0.8495 0.0010
vn -0.1341 -0.0340 0.9904
vn 0.0390 0.9682 0.2471
vn -0.1170 -0.0300 -0.9927
vn -0.5821 0.8131 0.0090
vn -0.5287 0.8488 -0.0031
vn -0.5251 0.8511 -0.0050
vn -0.5284 0.8490 -0.0029
vn -0.5312 0.8473 -0.0010
vn -0.2739 0.6969 0.6628
vn 0.0960 0.7389 0.6669
vn -0.1160 0.0540 0.9918
vn -0.1721 0.4521 -0.8752
vn -0.3190 -0.0700 -0.9452
vn 0.8189 0.5739 0.0000
vn 0.7049 0.6959 -0.1370
vn 0.6844 -0.7254 0.0740
vn 0.9937 0.1120 0.0040
vn -0.3199 -0.0560 0.9458
vn -0.3500 -0.0720 -0.9340
vn 0.2189 0.0780 -0.9726
vn 0.0850 -0.1879 -0.9785
vn -0.5821 -0.8131 0.0110
vn 0.1830 -0.9831 -0.0020
vn 0.8630 -0.5050 0.0120
vn -0.1360 -0.6390 -0.7571
vn 0.2360 -0.1990 -0.9511
vn -0.5977 -0.8017 0.0000
vn -0.0500 0.0080 0.9987
vn 0.3271 -0.5912 -0.7372
vn -0.1129 0.0040 -0.9936
vn -0.1129 0.0041 -0.9936
vn 0.9425 -0.3228 -0.0860
vn -0.4129 -0.9108 0.0010
vn -0.0530 -0.4020 0.9141
vn 0.6848 -0.7288 -0.0000
vn 0.2360 -0.6449 0.7269
vn 0.9258 -0.3749 0.0480
vn 0.0117 0.0820 -0.9966
vn 0.0119 0.0821 -0.9966
vn 0.0140 0.0780 -0.9969
vn -0.9594 -0.2821 -0.0020
vn -0.0000 1.0000 0.0000
vn -0.0010 1.0000 -0.0010
vn 0.0012 1.0000 -0.0036
vn -0.0840 -0.2271 -0.9703
vn 0.3308 -0.1069 -0.9376
vn -0.0160 -0.0680 0.9976
vn -0.1030 0.1650 0.9809
vn 0.9464 0.3221 0.0250
vn -0.4259 -0.9048 0.0020
vn -0.0690 0.2929 0.9536
vn -0.0690 0.2929 0.9537
vn 0.9496 -0.1430 -0.2789
vn 0.3389 -0.9408 0.0010
vn -0.4311 0.9022 0.0100
vn 0.9536 -0.1269 -0.2729
vn -0.1710 -0.4562 -0.8733
vn 0.0180 0.9998 0.0000
vn -0.2790 -0.4410 0.8530
vn 0.0360 -0.0060 0.9993
vn 0.9933 0.0560 0.1010
vn 0.2200 -0.2971 -0.9292
vn 0.9795 0.1999 0.0240
vn 0.0024 1.0000 -0.0039
vn -0.1010 0.0080 -0.9949
vn -0.1003 0.0058 -0.9949
vn -0.0998 0.0058 -0.9950
vn 0.0490 -0.3691 0.9281
vn 0.1280 -0.1901 0.9734
vn 0.1317 -0.1905 0.9728
vn 0.0320 -0.1570 0.9871
vn 0.1931 0.0400 0.9804
vn 0.0270 -0.9996 0.0030
vn 0.9842 -0.0250 -0.1751
vn -0.1360 -0.4250 0.8949
vn -0.1200 -0.2150 0.9692
vn 0.2989 -0.1600 -0.9408
vn 0.9749 -0.1390 -0.1740
vn -0.9090 -0.4168 0.0033
vn -0.9108 -0.4129 0.0040
vn -0.9075 -0.4201 -0.0004
vn 0.0610 -0.1639 -0.9846
vn 0.4420 -0.8970 -0.0020
vn 0.9357 -0.3389 0.0980
vn 0.0060 0.0340 0.9994
vn 0.0010 -0.3800 -0.9250
vn 0.0500 0.9987 0.0010
vn 0.0510 0.9987 0.0010
vn 0.0500 0.9988 0.0010
vn -0.9958 -0.0920 -0.0020
vn 0.6309 -0.7759 0.0020
vn 0.2519 -0.0430 0.9668
vn 0.2420 -0.0120 0.9702
vn -0.2219 -0.0510 0.9737
vn 0.1641 0.1340 0.9773
vn 0.1349 -0.1899 0.9725
vn 0.1910 -0.3260 -0.9259
vn 0.8306 -0.5328 -0.1619
vn 0.7512 -0.1650 -0.6392
vn -0.1381 0.1981 0.9704
vn -0.0980 0.0030 -0.9952
vn -0.2019 -0.1459 0.9685
vn -0.9719 0.2350 -0.0130
vn -0.2611 0.9653 0.0020
vn 0.9508 -0.3079 0.0340
vn 0.2029 0.0700 0.9767
vn 0.0690 0.1390 0.9879
vn 0.7969 -0.6040 0.0120
vn 0.7490 -0.6611 -0.0440
vn -0.1300 -0.1891 -0.9733
vn 0.0470 0.1250 -0.9910
vn -0.1110 -0.0330 -0.9933
vn 0.8139 0.5809 -0.0070
vn 0.0290 0.1260 -0.9916
vn 0.1020 -0.3739 -0.9218
vn -0.2701 0.9052 0.3281
vn 0.9910 -0.0420 0.1270
vn 0.8529 -0.5219 0.0140
vn -0.0900 -0.4062 0.9094
vn 0.0100 0.0870 -0.9962
vn 0.1170 -0.1670 0.9790
vn -0.3441 0.9373 -0.0560
vn -0.9057 -0.4239 0.0030
vn -0.1390 0.0670 0.9880
vn 0.0500 0.9942 -0.0950
vn 0.9739 -0.1380 0.1800
vn -0.1090 -0.1670 -0.9799
vn -0.9823 -0.1871 0.0040
vn -0.0650 -0.4189 -0.9057
vn -0.0600 -0.0890 0.9942
vn 0.0490 0.9988 0.0010
vn 0.0370 -0.0969 -0.9946
vn 0.1930 0.0890 -0.9771
vn 0.1020 -0.3361 0.9363
vn 0.0966 -0.3367 0.9367
vn 0.0967 -0.3362 0.9368
vn 0.0030 -0.3401 0.9404
vn 0.9541 -0.2220 -0.2010
vn -0.0220 -0.3968 -0.9176
vn 0.0020 1.0000 -0.0060
vn 0.9523 -0.2901 0.0950
vn 0.9847 -0.0470 0.1679
vn 0.1090 0.1701 0.9794
vn -0.1260 -0.9920 -0.0030
vn -0.0030 -0.2121 -0.9773
vn 0.0900 -0.3379 0.9369
vn 0.9658 0.2594 0.0000
vn 0.9659 0.2590 -0.0000
vn 0.9656 0.2599 0.0000
vn 0.0340 0.9994 -0.0060
vn 0.0090 1.0000 0.0020
vn 0.0310 0.0130 0.9994
vn -0.0000 -0.0270 0.9996
vn 0.0010 -0.0250 -0.9997
vn 0.0190 -0.0010 -0.9998
vn -1.0000 -0.0010 -0.0000
vn 0.9999 -0.0100 -0.0020
vn 0.9999 0.0140 0.0040
usemtl Default_OBJ.006
s 1
f 1//1 2//2 3//3
f 4//4 5//5 6//6
f 1//1 3//3 7//1
f 8//7 9//7 10//7
f 4//8 7//8 11//8
f 11//8 12//8 4//8
f 13//9 14//9 10//9
f 15//10 16//10 17//10
f 2//2 18//11 3//3
f 8//12 19//12 9//12
f 3//13 20//13 21//13
f 21//13 22//13 3//13
f 23//14 24//14 25//14
f 25//15 26//15 23//15
f 1//16 17//16 16//16
f 13//17 18//17 2//17
f 13//18 10//18 9//18
f 7//19 4//19 27//19
f 1//1 7//1 27//1
f 1//20 27//20 17//20
f 13//21 20//21 3//21
f 1//22 10//22 2//22
f 28//23 6//23 23//23
f 6//24 29//24 17//24
f 19//25 5//25 9//26
f 29//27 15//27 17//27
f 10//28 1//28 15//28
f 8//29 30//29 31//29
f 31//30 19//30 8//30
f 20//31 13//31 5//31
f 4//4 20//32 5//5
f 29//33 28//34 15//34
f 15//35 26//35 10//35
f 17//36 27//36 4//36
f 26//37 28//37 23//37
f 18//38 13//38 3//38
f 10//39 26//39 25//39
f 30//40 8//41 10//42
f 30//40 10//42 25//43
f 28//34 26//44 15//34
f 6//45 28//45 29//45
f 17//46 4//46 6//46
f 9//47 5//47 13//47
f 14//48 13//48 2//48
f 5//49 23//49 6//49
f 5//50 19//50 31//50
f 5//51 24//51 23//51
f 5//52 31//52 24//52
f 15//53 1//53 16//53
f 10//54 14//54 2//54
f 32//55 33//55 34//55
f 35//56 36//56 37//56
f 37//57 36//57 38//57
f 39//58 40//58 41//58
f 42//59 43//59 44//59
f 41//60 45//60 36//60
f 46//61 34//61 47//61
f 36//62 48//62 38//62
f 49//63 50//63 51//63
f 52//64 39//64 53//64
f 54//65 55//66 56//65
f 53//67 57//67 44//67
f 45//68 58//68 36//68
f 59//69 58//69 40//69
f 44//70 60//70 52//70
f 61//71 60//71 40//71
f 62//72 42//72 63//72
f 32//73 64//74 55//75
f 65//76 66//76 67//76
f 32//77 55//78 68//79
f 67//80 54//80 35//80
f 34//81 69//81 70//81
f 71//82 50//82 59//82
f 49//83 51//83 68//83
f 72//84 69//84 73//84
f 48//85 36//85 58//85
f 74//86 75//87 76//87
f 42//88 47//88 70//88
f 61//89 40//89 39//89
f 77//90 74//90 76//90
f 57//91 47//91 42//91
f 36//92 35//92 78//92
f 32//93 79//93 80//93
f 81//94 82//94 83//94
f 84//95 51//95 50//95
f 62//96 63//96 85//96
f 47//97 57//97 46//97
f 69//98 72//98 63//98
f 32//77 68//79 79//99
f 77//100 55//101 66//102
f 59//103 40//103 60//103
f 86//104 71//105 82//105
f 75//106 87//106 50//106
f 71//107 72//107 84//107
f 58//108 41//108 40//108
f 70//109 63//109 42//109
f 38//110 48//110 87//110
f 38//111 87//111 75//111
f 34//112 70//112 47//112
f 63//113 88//113 69//113
f 67//114 37//115 38//116
f 34//117 46//117 56//117
f 61//118 39//118 52//118
f 83//119 43//119 81//119
f 50//120 71//120 84//120
f 78//121 39//121 41//121
f 80//122 79//123 73//124
f 66//125 74//125 77//125
f 60//126 61//126 52//126
f 71//127 86//127 85//127
f 72//128 71//128 85//128
f 74//129 65//129 75//129
f 79//130 84//130 73//130
f 59//131 82//105 71//105
f 46//132 57//132 53//132
f 42//133 44//133 57//133
f 69//134 88//134 70//134
f 75//135 49//135 76//135
f 66//102 55//101 54//136
f 38//137 75//137 65//137
f 68//138 89//138 76//138
f 76//139 89//139 77//139
f 42//140 62//140 43//140
f 84//141 72//141 73//141
f 75//142 50//142 49//142
f 44//143 83//143 60//143
f 52//144 53//144 44//144
f 54//145 78//145 35//145
f 56//146 64//146 34//146
f 54//147 67//147 66//147
f 33//148 73//148 69//148
f 56//149 55//149 64//149
f 53//150 39//150 46//150
f 89//151 55//151 77//151
f 72//152 85//152 63//152
f 43//153 83//153 44//153
f 58//154 59//154 87//154
f 32//73 34//155 64//74
f 82//156 81//156 86//156
f 68//157 55//157 89//157
f 65//158 67//114 38//116
f 68//159 76//159 49//159
f 32//160 80//160 33//160
f 62//161 86//161 81//161
f 78//162 54//162 56//162
f 65//163 74//163 66//163
f 36//164 78//164 41//164
f 59//165 50//165 87//165
f 80//122 73//124 33//166
f 37//167 67//167 35//167
f 33//168 69//168 34//168
f 59//169 60//170 82//171
f 58//172 87//172 48//172
f 70//173 88//173 63//173
f 39//174 78//174 46//174
f 79//99 68//79 51//175
f 43//176 62//176 81//176
f 62//177 85//177 86//177
f 84//178 79//178 51//178
f 45//179 41//179 58//179
f 78//180 56//180 46//180
f 83//181 82//171 60//170
f 12//182 11//183 22//182
f 21//184 12//182 22//182
f 20//77 4//77 12//77
f 12//77 21//77 20//77
f 7//1 3//3 22//1
f 22//1 11//1 7//1
f 90//185 91//185 92//185
f 92//186 93//186 90//186
f 24//187 90//187 93//187
f 93//188 25//188 24//188
f 92//189 91//189 31//189
f 31//190 30//190 92//190
f 92//191 30//191 25//191
f 25//191 93//191 92//191
f 91//192 90//192 24//192
f 24//193 31//193 91//193
o tablet_collision
v -0.065000 0.089000 -0.095000
v -0.095000 0.199000 -0.100000
v -0.057000 0.091000 -0.100000
v -0.094000 0.195000 0.100000
v -0.087000 0.204000 0.100000
v -0.095000 0.199000 0.095000
v -0.087000 0.204000 -0.100000
v -0.065000 0.089000 0.100000
v -0.057000 0.091000 0.100000
vn -0.4801 -0.1670 -0.8612
vn -0.6682 0.4411 0.5992
vn -0.5256 0.8507 0.0000
vn -0.5250 0.8511 0.0000
vn -0.5262 0.8504 0.0000
vn 0.2590 -0.9659 -0.0000
vn -0.9659 -0.2590 -0.0000
vn -0.9659 -0.2589 -0.0000
vn 0.9659 0.2589 0.0000
vn 0.9659 0.2590 -0.0000
vn 0.0021 0.0011 1.0000
vn -0.0011 -0.0000 1.0000
vn 0.0030 0.0010 1.0000
vn 0.0030 0.0010 -1.0000
usemtl Default_OBJ.007
s 1
f 94//194 95//194 96//194
f 97//195 98//195 99//195
f 98//196 100//197 95//196
f 98//196 95//196 99//198
f 94//199 96//199 101//199
f 101//199 96//199 102//199
f 95//200 97//201 99//200
f 101//200 97//201 94//200
f 94//200 97//201 95//200
f 100//202 98//203 96//203
f 102//202 96//203 98//203
f 101//204 102//205 98//204
f 97//206 101//204 98//204
f 100//207 96//207 95//207
