# Created using Spin 3D

# Vertex Array 
v -0.118 0.091 0.089
v -0.114 0.091 -0.089
v -0.066 0.091 -0.100
v -0.099 0.211 0.100
v -0.103 0.216 -0.099
v -0.103 0.216 0.099
v -0.066 0.091 0.100
v -0.131 0.228 -0.084
v -0.115 0.224 -0.093
v -0.150 0.217 -0.085
v -0.056 0.091 0.100
v -0.089 0.211 0.100
v -0.113 0.215 -0.098
v -0.126 0.210 -0.093
v -0.150 0.217 0.085
v -0.125 0.209 0.093
v -0.113 0.214 0.098
v -0.080 0.091 -0.098
v -0.111 0.227 -0.083
v -0.099 0.211 -0.100
v -0.089 0.211 -0.100
v -0.056 0.091 -0.100
v -0.111 0.228 0.081
v -0.105 0.229 0.044
v -0.132 0.228 0.044
v -0.131 0.228 0.081
v -0.080 0.091 0.098
v -0.115 0.225 0.091
v -0.114 0.221 0.095
v -0.132 0.228 -0.044
v -0.105 0.229 -0.044
v 0.008 0.103 -0.104
v 0.022 0.102 -0.101
v 0.006 0.061 -0.108
v -0.086 0.039 -0.099
v -0.014 -0.022 -0.081
v -0.094 0.035 -0.099
v -0.094 0.037 0.098
v 0.009 -0.025 -0.081
v 0.005 -0.026 0.081
v 0.000 -0.026 -0.080
v 0.036 0.007 -0.056
v 0.029 -0.002 0.053
v 0.025 -0.012 -0.051
v -0.007 -0.025 -0.080
v -0.001 0.027 -0.103
v 0.027 0.023 -0.095
v -0.015 -0.021 0.082
v -0.062 0.090 0.104
v -0.032 0.063 0.106
v -0.025 0.103 0.106
v 0.015 -0.022 -0.081
v 0.021 -0.014 -0.084
v -0.069 0.058 -0.105
v -0.065 0.103 -0.105
v -0.027 0.059 -0.110
v 0.026 0.001 -0.088
v -0.006 -0.026 0.081
v -0.015 0.029 0.104
v 0.018 -0.019 0.083
v 0.013 -0.023 0.081
v 0.039 0.026 0.044
v 0.044 0.033 -0.013
v -0.025 0.090 -0.106
v -0.105 0.061 0.099
v -0.108 0.073 -0.101
v -0.103 0.054 -0.101
v -0.098 0.103 0.099
v 0.036 0.083 -0.100
v 0.030 0.046 -0.098
v 0.006 0.055 0.106
v 0.032 0.081 0.100
v 0.024 0.102 0.100
v -0.110 0.086 0.100
v -0.069 0.068 0.108
v -0.101 0.090 0.099
v -0.110 0.088 -0.101
v -0.040 0.030 -0.103
v 0.013 0.103 0.102
v 0.017 0.103 -0.101
v 0.026 0.001 0.094
v 0.008 0.024 0.100
v 0.022 -0.013 0.085
v 0.005 0.090 0.105
v 0.031 0.064 0.100
v 0.030 0.034 0.099
v -0.055 0.033 0.102
v 0.034 0.063 -0.098
v -0.098 0.091 -0.100
v -0.105 0.249 0.043
v -0.105 0.249 -0.044
v -0.132 0.250 -0.044
v -0.132 0.250 0.044

# Normal Array
vn -0.000 -1.000 -0.000
vn 0.783 0.623 -0.000
vn -0.000 -1.000 -0.000
vn -0.290 0.534 -0.795
vn 0.000 -0.000 1.000
vn 0.000 -0.000 1.000
vn -0.337 -0.019 -0.941
vn -0.333 -0.105 0.937
vn 0.000 -1.000 0.001
vn 0.054 0.922 -0.384
vn 0.000 0.000 -1.000
vn 0.000 0.000 -1.000
vn -0.030 0.999 0.039
vn 0.039 0.999 0.000
vn -0.352 -0.057 0.934
vn -0.271 -0.071 -0.960
vn -0.284 0.422 -0.861
vn -0.120 -0.032 0.992
vn 0.000 -1.000 -0.000
vn -0.244 -0.064 0.968
vn -0.131 -0.035 -0.991
vn -0.961 -0.275 -0.022
vn 0.389 0.849 0.357
vn -0.168 0.307 0.937
vn 0.284 0.847 -0.449
vn -0.296 0.272 0.916
vn -0.969 -0.247 -0.000
vn -0.029 1.000 0.001
vn 0.050 0.997 -0.051
vn -0.115 0.028 -0.993
vn 0.781 0.625 -0.000
vn -0.274 0.696 0.663
vn -0.528 0.850 0.001
vn -0.134 -0.034 0.990
vn 0.039 0.968 0.247
vn -0.117 -0.030 -0.993
vn -0.582 0.813 0.009
vn -0.525 0.851 -0.005
vn -0.531 0.847 -0.001
vn -0.274 0.697 0.663
vn 0.096 0.739 0.667
vn -0.116 0.054 0.992
vn -0.172 0.452 -0.875
vn -0.319 -0.070 -0.945
vn 0.819 0.574 -0.000
vn 0.705 0.696 -0.137
vn 0.684 -0.725 0.074
vn 0.994 0.112 0.004
vn -0.320 -0.056 0.946
vn -0.350 -0.072 -0.934
vn 0.219 0.078 -0.973
vn 0.085 -0.188 -0.979
vn -0.582 -0.813 0.011
vn 0.183 -0.983 -0.002
vn 0.863 -0.505 0.012
vn -0.136 -0.639 -0.757
vn 0.236 -0.199 -0.951
vn -0.598 -0.802 0.000
vn -0.050 0.008 0.999
vn 0.327 -0.591 -0.737
vn -0.113 0.004 -0.994
vn 0.943 -0.323 -0.086
vn -0.413 -0.911 0.001
vn -0.053 -0.402 0.914
vn 0.685 -0.729 0.000
vn 0.236 -0.645 0.727
vn 0.926 -0.375 0.048
vn 0.014 0.078 -0.997
vn -0.959 -0.282 -0.002
vn -0.001 1.000 -0.001
vn -0.084 -0.227 -0.970
vn 0.331 -0.107 -0.938
vn -0.016 -0.068 0.998
vn -0.103 0.165 0.981
vn 0.946 0.322 0.025
vn -0.426 -0.905 0.002
vn -0.069 0.293 0.954
vn 0.950 -0.143 -0.279
vn 0.339 -0.941 0.001
vn -0.431 0.902 0.010
vn 0.954 -0.127 -0.273
vn -0.171 -0.456 -0.873
vn 0.018 1.000 0.000
vn -0.279 -0.441 0.853
vn 0.036 -0.006 0.999
vn 0.993 0.056 0.101
vn 0.220 -0.297 -0.929
vn 0.980 0.200 0.024
vn 0.001 1.000 0.001
vn -0.101 0.008 -0.995
vn 0.049 -0.369 0.928
vn 0.128 -0.190 0.973
vn 0.032 -0.157 0.987
vn 0.193 0.040 0.980
vn 0.027 -1.000 0.003
vn 0.984 -0.025 -0.175
vn -0.136 -0.425 0.895
vn -0.120 -0.215 0.969
vn 0.299 -0.160 -0.941
vn 0.975 -0.139 -0.174
vn -0.911 -0.413 0.004
vn 0.061 -0.164 -0.985
vn 0.442 -0.897 -0.002
vn 0.936 -0.339 0.098
vn 0.006 0.034 0.999
vn 0.001 -0.380 -0.925
vn 0.051 0.999 0.001
vn -0.996 -0.092 -0.002
vn 0.631 -0.776 0.002
vn 0.252 -0.043 0.967
vn 0.242 -0.012 0.970
vn -0.222 -0.051 0.974
vn 0.164 0.134 0.977
vn 0.135 -0.190 0.973
vn 0.191 -0.326 -0.926
vn 0.831 -0.533 -0.162
vn 0.751 -0.165 -0.639
vn -0.138 0.198 0.970
vn -0.098 0.003 -0.995
vn -0.202 -0.146 0.969
vn -0.972 0.235 -0.013
vn -0.261 0.965 0.002
vn 0.951 -0.308 0.034
vn 0.203 0.070 0.977
vn 0.069 0.139 0.988
vn 0.797 -0.604 0.012
vn 0.749 -0.661 -0.044
vn -0.130 -0.189 -0.973
vn 0.047 0.125 -0.991
vn -0.111 -0.033 -0.993
vn 0.814 0.581 -0.007
vn 0.029 0.126 -0.992
vn 0.102 -0.374 -0.922
vn -0.270 0.905 0.328
vn 0.991 -0.042 0.127
vn 0.853 -0.522 0.014
vn -0.090 -0.406 0.909
vn 0.010 0.087 -0.996
vn 0.117 -0.167 0.979
vn -0.344 0.937 -0.056
vn -0.906 -0.424 0.003
vn -0.139 0.067 0.988
vn 0.050 0.994 -0.095
vn 0.974 -0.138 0.180
vn -0.109 -0.167 -0.980
vn -0.982 -0.187 0.004
vn -0.065 -0.419 -0.906
vn -0.060 -0.089 0.994
vn 0.049 0.999 0.001
vn 0.037 -0.097 -0.995
vn 0.193 0.089 -0.977
vn 0.102 -0.336 0.936
vn 0.003 -0.340 0.940
vn 0.954 -0.222 -0.201
vn -0.022 -0.397 -0.918
vn 0.002 1.000 -0.006
vn 0.952 -0.290 0.095
vn 0.985 -0.047 0.168
vn 0.109 0.170 0.979
vn -0.126 -0.992 -0.003
vn -0.003 -0.212 -0.977
vn 0.090 -0.338 0.937
vn 0.966 0.259 0.000
vn 0.966 0.260 -0.000
vn 0.000 1.000 0.000
vn 0.000 1.000 0.000
vn 0.000 -1.000 0.000
vn 0.000 -1.000 0.000
vn 0.034 0.999 -0.006
vn 0.009 1.000 0.002
vn 0.031 0.013 0.999
vn -0.000 -0.027 1.000
vn 0.001 -0.025 -1.000
vn 0.019 -0.001 -1.000
vn -1.000 -0.001 -0.000
vn -1.000 -0.001 -0.000
vn 1.000 -0.010 -0.002
vn 1.000 0.014 0.004

# Facets
f 1//1 2//1 3//1
f 4//2 5//2 6//2
f 1//3 3//3 7//3
f 8//4 9//4 10//4
f 4//5 7//5 11//5
f 11//6 12//6 4//6
f 13//7 14//7 10//7
f 15//8 16//8 17//8
f 2//9 18//9 3//9
f 8//10 19//10 9//10
f 3//11 20//11 21//11
f 21//12 22//12 3//12
f 23//13 24//13 25//13
f 25//14 26//14 23//14
f 1//15 17//15 16//15
f 13//16 18//16 2//16
f 13//17 10//17 9//17
f 7//18 4//18 27//18
f 1//19 7//19 27//19
f 1//20 27//20 17//20
f 13//21 20//21 3//21
f 1//22 10//22 2//22
f 28//23 6//23 23//23
f 6//24 29//24 17//24
f 19//25 5//25 9//25
f 29//26 15//26 17//26
f 10//27 1//27 15//27
f 8//28 30//28 31//28
f 31//29 19//29 8//29
f 20//30 13//30 5//30
f 4//31 20//31 5//31
f 29//32 28//32 15//32
f 15//33 26//33 10//33
f 17//34 27//34 4//34
f 26//35 28//35 23//35
f 18//36 13//36 3//36
f 10//37 26//37 25//37
f 30//38 8//38 10//38
f 30//39 10//39 25//39
f 28//40 26//40 15//40
f 6//41 28//41 29//41
f 17//42 4//42 6//42
f 9//43 5//43 13//43
f 14//44 13//44 2//44
f 5//45 23//45 6//45
f 5//46 19//46 31//46
f 5//47 24//47 23//47
f 5//48 31//48 24//48
f 15//49 1//49 16//49
f 10//50 14//50 2//50
f 32//51 33//51 34//51
f 35//52 36//52 37//52
f 37//53 36//53 38//53
f 39//54 40//54 41//54
f 42//55 43//55 44//55
f 41//56 45//56 36//56
f 46//57 34//57 47//57
f 36//58 48//58 38//58
f 49//59 50//59 51//59
f 52//60 39//60 53//60
f 54//61 55//61 56//61
f 53//62 57//62 44//62
f 45//63 58//63 36//63
f 59//64 58//64 40//64
f 44//65 60//65 52//65
f 61//66 60//66 40//66
f 62//67 42//67 63//67
f 32//68 64//68 55//68
f 65//69 66//69 67//69
f 32//70 55//70 68//70
f 67//71 54//71 35//71
f 34//72 69//72 70//72
f 71//73 50//73 59//73
f 49//74 51//74 68//74
f 72//75 69//75 73//75
f 48//76 36//76 58//76
f 74//77 75//77 76//77
f 42//78 47//78 70//78
f 61//79 40//79 39//79
f 77//80 74//80 76//80
f 57//81 47//81 42//81
f 36//82 35//82 78//82
f 32//83 79//83 80//83
f 81//84 82//84 83//84
f 84//85 51//85 50//85
f 62//86 63//86 85//86
f 47//87 57//87 46//87
f 69//88 72//88 63//88
f 32//89 68//89 79//89
f 77//90 55//90 66//90
f 59//91 40//91 60//91
f 86//92 71//92 82//92
f 75//93 87//93 50//93
f 71//94 72//94 84//94
f 58//95 41//95 40//95
f 70//96 63//96 42//96
f 38//97 48//97 87//97
f 38//98 87//98 75//98
f 34//99 70//99 47//99
f 63//100 88//100 69//100
f 67//101 37//101 38//101
f 34//102 46//102 56//102
f 61//103 39//103 52//103
f 83//104 43//104 81//104
f 50//105 71//105 84//105
f 78//106 39//106 41//106
f 80//107 79//107 73//107
f 66//108 74//108 77//108
f 60//109 61//109 52//109
f 71//110 86//110 85//110
f 72//111 71//111 85//111
f 74//112 65//112 75//112
f 79//113 84//113 73//113
f 59//114 82//114 71//114
f 46//115 57//115 53//115
f 42//116 44//116 57//116
f 69//117 88//117 70//117
f 75//118 49//118 76//118
f 66//119 55//119 54//119
f 38//120 75//120 65//120
f 68//121 89//121 76//121
f 76//122 89//122 77//122
f 42//123 62//123 43//123
f 84//124 72//124 73//124
f 75//125 50//125 49//125
f 44//126 83//126 60//126
f 52//127 53//127 44//127
f 54//128 78//128 35//128
f 56//129 64//129 34//129
f 54//130 67//130 66//130
f 33//131 73//131 69//131
f 56//132 55//132 64//132
f 53//133 39//133 46//133
f 89//134 55//134 77//134
f 72//135 85//135 63//135
f 43//136 83//136 44//136
f 58//137 59//137 87//137
f 32//138 34//138 64//138
f 82//139 81//139 86//139
f 68//140 55//140 89//140
f 65//141 67//141 38//141
f 68//142 76//142 49//142
f 32//143 80//143 33//143
f 62//144 86//144 81//144
f 78//145 54//145 56//145
f 65//146 74//146 66//146
f 36//147 78//147 41//147
f 59//148 50//148 87//148
f 80//149 73//149 33//149
f 37//150 67//150 35//150
f 33//151 69//151 34//151
f 59//152 60//152 82//152
f 58//153 87//153 48//153
f 70//154 88//154 63//154
f 39//155 78//155 46//155
f 79//156 68//156 51//156
f 43//157 62//157 81//157
f 62//158 85//158 86//158
f 84//159 79//159 51//159
f 45//160 41//160 58//160
f 78//161 56//161 46//161
f 83//162 82//162 60//162
f 12//163 11//163 22//163
f 21//164 12//164 22//164
f 20//165 4//165 12//165
f 12//166 21//166 20//166
f 7//167 3//167 22//167
f 22//168 11//168 7//168
f 90//169 91//169 92//169
f 92//170 93//170 90//170
f 24//171 90//171 93//171
f 93//172 25//172 24//172
f 92//173 91//173 31//173
f 31//174 30//174 92//174
f 92//175 30//175 25//175
f 25//176 93//176 92//176
f 91//177 90//177 24//177
f 24//178 31//178 91//178

# Thank you for using Spin 3D

