# Created using Spin 3D

# Vertex Array 
v 0.006 0.021 -0.046
v -0.053 -0.032 -0.029
v -0.059 -0.036 -0.010
v -0.041 -0.050 -0.044
v -0.051 -0.050 -0.033
v -0.019 -0.050 0.057
v 0.013 -0.050 0.061
v -0.016 -0.043 0.058
v -0.024 -0.043 -0.056
v 0.012 -0.050 -0.062
v 0.033 -0.050 -0.015
v 0.045 -0.002 0.045
v 0.032 -0.050 0.027
v 0.017 0.025 -0.046
v 0.041 0.014 -0.046
v 0.042 0.012 0.045
v 0.045 -0.001 -0.045
v 0.024 -0.050 0.056
v 0.032 0.022 0.046
v -0.046 -0.050 0.039
v 0.029 0.024 -0.045
v 0.019 0.025 0.045
v -0.039 -0.023 -0.043
v 0.024 -0.050 -0.056
v -0.015 -0.050 -0.059
v -0.053 -0.032 0.028
v -0.059 -0.050 0.015
v -0.059 -0.036 0.010
v -0.058 -0.050 -0.016
v -0.034 -0.050 0.050
v -0.039 -0.022 0.043
v 0.006 0.021 0.046

# Normal Array
vn -0.679 0.731 -0.073
vn -0.787 0.037 -0.616
vn -0.134 -0.117 0.984
vn -0.112 0.211 -0.971
vn 0.959 -0.281 0.036
vn -0.072 0.215 -0.974
vn 0.963 0.271 -0.007
vn 0.473 -0.022 0.881
vn 0.177 0.167 0.970
vn -0.000 -1.000 -0.000
vn 0.088 0.996 -0.007
vn -0.760 0.077 -0.645
vn 0.910 -0.358 -0.211
vn 0.030 0.210 -0.977
vn 0.133 0.186 -0.974
vn -0.464 -0.258 -0.848
vn -0.879 -0.053 0.473
vn -0.000 -1.000 0.000
vn -0.948 0.089 0.306
vn 0.001 -1.000 -0.000
vn 0.611 0.791 -0.009
vn 0.713 0.701 0.008
vn -0.110 0.223 -0.969
vn -0.021 -0.999 0.030
vn -0.423 0.006 0.906
vn -0.328 0.945 0.001
vn 0.971 -0.240 0.000
vn 0.038 0.206 0.978
vn 0.367 0.066 0.928
vn 0.347 0.081 -0.934
vn 0.426 0.017 -0.905
vn -0.000 -1.000 0.000
vn -0.758 0.096 0.645
vn 0.978 0.210 0.003
vn -0.904 -0.013 -0.426
vn -0.997 -0.078 -0.019
vn -0.000 -1.000 0.000
vn -0.687 0.705 0.175
vn -0.325 0.292 0.899
vn -0.570 0.068 -0.819
vn 0.005 -0.997 -0.082
vn -0.675 0.059 0.735
vn 0.000 -1.000 0.000
vn -0.000 -1.000 -0.000
vn -0.061 0.215 0.975
vn -0.058 0.213 0.975
vn -1.000 -0.019 0.012
vn -0.459 0.134 0.879
vn -0.332 0.943 0.002
vn 0.003 -1.000 0.001
vn 0.228 0.974 0.009
vn -0.333 0.301 -0.893
vn -0.680 0.729 0.077
vn -0.000 -1.000 0.000
vn 0.001 -1.000 0.022
vn 0.902 -0.348 0.257
vn -0.686 0.704 -0.184
vn -0.942 0.068 -0.328
vn -0.658 0.753 -0.000
vn -0.659 0.752 -0.002

# Facets
f 1//1 2//1 3//1
f 2//2 4//2 5//2
f 6//3 7//3 8//3
f 9//4 1//4 10//4
f 11//5 12//5 13//5
f 10//6 1//6 14//6
f 15//7 16//7 17//7
f 7//8 18//8 12//8
f 16//9 19//9 7//9
f 6//10 20//10 13//10
f 21//11 14//11 22//11
f 4//12 2//12 23//12
f 24//13 17//13 11//13
f 14//14 21//14 10//14
f 21//15 15//15 10//15
f 25//16 4//16 9//16
f 26//17 27//17 20//17
f 11//18 13//18 24//18
f 28//19 27//19 26//19
f 4//20 20//20 29//20
f 19//21 15//21 21//21
f 16//22 15//22 19//22
f 25//23 9//23 10//23
f 6//24 30//24 20//24
f 8//25 30//25 6//25
f 14//26 1//26 22//26
f 17//27 12//27 11//27
f 19//28 22//28 7//28
f 12//29 16//29 7//29
f 17//30 10//30 15//30
f 24//31 10//31 17//31
f 13//32 20//32 24//32
f 20//33 31//33 26//33
f 16//34 12//34 17//34
f 29//35 2//35 5//35
f 29//36 27//36 3//36
f 20//37 25//37 24//37
f 26//38 31//38 32//38
f 32//39 31//39 8//39
f 9//40 4//40 23//40
f 24//41 25//41 10//41
f 20//42 30//42 31//42
f 18//43 6//43 13//43
f 25//44 20//44 4//44
f 8//45 22//45 32//45
f 8//46 7//46 22//46
f 28//47 3//47 27//47
f 30//48 8//48 31//48
f 22//49 1//49 32//49
f 4//50 29//50 5//50
f 22//51 19//51 21//51
f 1//52 9//52 23//52
f 26//53 32//53 28//53
f 29//54 20//54 27//54
f 7//55 6//55 18//55
f 18//56 13//56 12//56
f 2//57 1//57 23//57
f 29//58 3//58 2//58
f 32//59 1//59 28//59
f 3//60 28//60 1//60

# Thank you for using Spin 3D

